# Blender v2.79 (sub 0) OBJ File: 'room.blend'
# www.blender.org
o Desk_Cube.003
v -7.907910 5.473721 -12.617926
v -8.098262 5.946600 -12.135401
v -7.907910 5.473721 -19.196379
v -8.098262 5.946600 -19.862638
v 5.671853 5.474451 -12.617195
v 5.862204 5.946600 -12.135401
v 5.671853 5.474451 -19.197107
v 5.862204 5.946600 -19.862638
v -8.098262 5.700788 -19.862638
v -8.098262 5.700788 -12.135401
v 5.862204 5.700788 -19.862638
v 5.862204 5.700788 -12.135401
v 1.694808 5.700788 -19.862638
v 1.694808 5.946600 -19.862638
v 1.694808 5.700788 -12.135401
v 1.694808 5.946600 -12.135401
v 1.737432 5.581457 -19.423445
v 1.618102 5.700788 -12.390859
v -3.906406 5.700788 -19.862638
v -3.906406 5.946600 -12.135401
v -3.899204 5.631950 -19.423445
v -3.906405 5.946600 -19.862638
v -3.906405 5.700788 -12.135401
v -3.830367 5.700788 -12.390859
v -7.907910 0.173058 -19.196379
v -7.907910 0.173058 -12.617926
v -3.930234 0.045859 -19.423445
v 5.671853 0.172328 -12.617195
v 5.671853 0.172328 -19.197107
v 1.618102 -0.054009 -12.390859
v 1.719970 0.047860 -19.423445
v -3.830367 -0.054009 -12.390859
v -7.839072 5.631950 -19.423445
v -7.907910 5.700788 -12.390859
v -7.808042 0.045859 -19.423445
v -7.907910 -0.054009 -12.390859
v -7.742304 5.473721 -19.196379
v -7.742304 5.473721 -12.617926
v -7.742304 0.173058 -19.196379
v -7.742304 0.173058 -12.617926
v 5.671853 5.700788 -12.390859
v 5.552521 5.581457 -19.423445
v 5.671853 -0.054009 -12.390859
v 5.569984 0.047860 -19.423445
v 5.523855 5.474451 -12.617195
v 5.523855 5.474451 -19.197107
v 5.523855 0.172328 -12.617195
v 5.523855 0.172328 -19.197107
v 1.737432 2.942720 -19.423445
v 1.618102 2.823389 -12.390859
v 5.671853 2.823389 -12.390859
v 5.552521 2.942720 -19.423445
v 5.671853 2.823389 -12.617195
v 5.671853 2.823389 -19.197107
v 5.523855 2.823389 -12.617195
v 5.523855 2.823389 -19.197107
v -7.839072 2.892227 -19.423445
v -7.907910 2.823389 -12.390859
v -3.830367 2.823389 -12.390859
v -3.899204 2.892227 -19.423445
v -7.907910 2.823389 -19.196379
v -7.907910 2.823389 -12.617926
v -7.742304 2.823389 -19.196379
v -7.742304 2.823389 -12.617926
v 5.671853 5.700788 -19.423445
v 1.523002 5.605688 -19.423445
v 5.569984 2.721520 -19.423445
v 1.719970 2.721520 -19.423445
v 5.552521 5.581457 -19.507446
v 1.737432 5.581457 -19.507446
v 5.552521 2.942720 -19.507446
v 1.737432 2.942720 -19.507446
v 5.671853 -0.054009 -19.423445
v 1.618102 -0.054009 -19.423445
v 1.618102 2.823389 -19.423445
v 5.671853 2.823389 -19.423445
v 5.569984 0.047860 -19.517229
v 1.719970 0.047860 -19.517229
v 1.719970 2.721520 -19.517229
v 5.569984 2.721520 -19.517229
v -3.735267 5.605688 -19.423445
v -7.907910 5.700788 -19.423445
v -3.930234 2.723521 -19.423445
v -7.808042 2.723521 -19.423445
v -3.899204 5.631950 -19.526585
v -7.839072 5.631950 -19.526585
v -3.899204 2.892227 -19.526585
v -7.839072 2.892227 -19.526585
v -3.830366 -0.054009 -19.423445
v -7.907910 -0.054009 -19.423445
v -7.907910 2.823389 -19.423445
v -3.830366 2.823389 -19.423445
v -3.930234 0.045859 -19.566370
v -7.808042 0.045859 -19.566370
v -7.808042 2.723521 -19.566370
v -3.930234 2.723521 -19.566370
v -3.830367 4.301028 -12.390859
v 1.618102 4.301028 -12.390859
v 1.523002 4.396128 -19.423445
v -3.735267 4.396128 -19.423445
v 1.618102 5.700788 -19.423445
v -3.830366 5.700788 -19.423445
v 1.618102 4.301028 -19.423445
v -3.830366 4.301028 -19.423445
v 1.523002 5.605688 -19.678608
v -3.735267 5.605688 -19.678608
v 1.523002 4.396128 -19.678608
v -3.735267 4.396128 -19.678608
v -1.547362 4.900170 -19.645252
v -1.547362 5.139968 -19.645252
v -1.547362 4.900170 -19.885050
v 3.191483 5.149677 -19.459648
v -0.656098 4.900170 -19.645252
v -0.656098 5.139968 -19.645252
v -0.656098 4.900170 -19.885050
v 3.191483 4.909879 -19.459648
v -1.547362 5.139968 -19.773954
v -1.547362 5.028872 -19.885050
v -1.547362 5.125084 -19.829502
v -1.547362 5.084420 -19.870167
v -0.656098 5.028872 -19.885050
v -0.656098 5.139968 -19.773954
v -0.656098 5.084420 -19.870167
v -0.656098 5.125084 -19.829502
v 3.191483 4.909879 -19.699448
v 4.082747 4.909879 -19.459648
v 4.082747 5.149677 -19.459648
v 4.082747 4.909879 -19.699448
v 3.191483 5.149677 -19.588352
v 3.191483 5.038581 -19.699448
v 3.191483 5.134793 -19.643900
v 3.191483 5.094129 -19.684563
v 4.082747 5.038581 -19.699448
v 4.082747 5.149677 -19.588352
v 4.082747 5.094129 -19.684563
v 4.082747 5.134793 -19.643900
v 3.191483 2.259424 -19.459648
v 3.191483 2.019626 -19.459648
v 3.191483 2.019626 -19.699448
v 4.082747 2.019626 -19.459648
v 4.082747 2.259424 -19.459648
v 4.082747 2.019626 -19.699448
v 3.191483 2.259424 -19.588352
v 3.191483 2.148329 -19.699448
v 3.191483 2.244540 -19.643900
v 3.191483 2.203876 -19.684563
v 4.082747 2.148329 -19.699448
v 4.082747 2.259424 -19.588352
v 4.082747 2.203876 -19.684563
v 4.082747 2.244540 -19.643900
v -6.353712 2.257714 -19.459648
v -6.353712 2.017916 -19.459648
v -6.353712 2.017916 -19.699448
v -5.462448 2.017916 -19.459648
v -5.462448 2.257714 -19.459648
v -5.462448 2.017916 -19.699448
v -6.353712 2.257714 -19.588352
v -6.353712 2.146618 -19.699448
v -6.353712 2.242830 -19.643900
v -6.353712 2.202166 -19.684563
v -5.462448 2.146618 -19.699448
v -5.462448 2.257714 -19.588352
v -5.462448 2.202166 -19.684563
v -5.462448 2.242830 -19.643900
v -6.353712 5.246343 -19.459648
v -6.353712 5.006544 -19.459648
v -6.353712 5.006544 -19.699448
v -5.462448 5.006544 -19.459648
v -5.462448 5.246343 -19.459648
v -5.462448 5.006544 -19.699448
v -6.353712 5.246343 -19.588352
v -6.353712 5.135246 -19.699448
v -6.353712 5.231458 -19.643900
v -6.353712 5.190794 -19.684563
v -5.462448 5.135246 -19.699448
v -5.462448 5.246343 -19.588352
v -5.462448 5.190794 -19.684563
v -5.462448 5.231458 -19.643900
vt 0.957728 0.986301
vt 0.949719 0.986301
vt 0.949719 0.725710
vt 0.957728 0.725710
vt 0.939802 0.388353
vt 0.931797 0.388353
vt 0.931797 0.247813
vt 0.939802 0.247813
vt 0.924938 0.699246
vt 0.916929 0.699246
vt 0.916928 0.438655
vt 0.924938 0.438655
vt 0.952944 0.332983
vt 0.960953 0.332983
vt 0.960953 0.474347
vt 0.952944 0.474347
vt 0.975993 0.496762
vt 0.975993 0.718189
vt 0.971171 0.718189
vt 0.971171 0.496762
vt 0.513293 0.332983
vt 0.513293 0.474347
vt 0.262058 0.474347
vt 0.262058 0.332983
vt 0.240889 0.009969
vt 0.011753 0.009969
vt 0.003430 0.003550
vt 0.255199 0.003550
vt 0.240889 0.147479
vt 0.255199 0.144914
vt 0.011753 0.467928
vt 0.240889 0.467928
vt 0.255199 0.474347
vt 0.003430 0.474347
vt 0.011753 0.331221
vt 0.003430 0.333808
vt 0.011753 0.147479
vt 0.003430 0.144914
vt 0.240889 0.331221
vt 0.255199 0.333808
vt 0.513293 0.003550
vt 0.513293 0.144089
vt 0.262058 0.144089
vt 0.262058 0.003550
vt 0.844808 0.962875
vt 0.844808 0.725710
vt 0.890415 0.725710
vt 0.890415 0.962875
vt 0.952944 0.003550
vt 0.960953 0.003550
vt 0.960953 0.144089
vt 0.952944 0.144089
vt 0.939802 0.577246
vt 0.931797 0.577246
vt 0.939802 0.718611
vt 0.931797 0.718611
vt 0.613903 0.240714
vt 0.613903 0.003550
vt 0.707655 0.003550
vt 0.707655 0.240714
vt 0.902977 0.718611
vt 0.770897 0.718611
vt 0.770897 0.481447
vt 0.902977 0.481447
vt 0.714514 0.003550
vt 0.847369 0.003550
vt 0.847369 0.240714
vt 0.714514 0.240714
vt 0.984889 0.277356
vt 0.984889 0.366735
vt 0.979493 0.366735
vt 0.979493 0.277356
vt 0.097181 0.718611
vt 0.097181 0.481447
vt 0.190933 0.481447
vt 0.190933 0.718611
vt 0.003430 0.822747
vt 0.136284 0.822747
vt 0.136284 0.919783
vt 0.003430 0.919783
vt 0.282857 0.822747
vt 0.414937 0.822747
vt 0.414937 0.919783
vt 0.282857 0.919783
vt 0.710185 0.993420
vt 0.710185 0.863584
vt 0.713235 0.863584
vt 0.713235 0.993420
vt 0.560734 0.955977
vt 0.560734 0.865677
vt 0.565391 0.865677
vt 0.565391 0.955977
vt 0.399552 0.489104
vt 0.399552 0.710954
vt 0.392154 0.718611
vt 0.392154 0.481447
vt 0.572259 0.710953
vt 0.572259 0.489104
vt 0.579657 0.481447
vt 0.579657 0.718611
vt 0.485905 0.489104
vt 0.485905 0.481447
vt 0.485905 0.710953
vt 0.485905 0.718611
vt 0.786118 0.469663
vt 0.786118 0.247813
vt 0.872471 0.247813
vt 0.872471 0.469663
vt 0.946661 0.718611
vt 0.946661 0.496762
vt 0.952057 0.496762
vt 0.952057 0.718611
vt 0.979760 0.815046
vt 0.979760 0.725710
vt 0.985156 0.725710
vt 0.985156 0.815046
vt 0.958916 0.718140
vt 0.958916 0.496762
vt 0.964312 0.496762
vt 0.964312 0.718140
vt 0.377920 0.710978
vt 0.377920 0.489080
vt 0.385295 0.481447
vt 0.385295 0.718611
vt 0.205166 0.489080
vt 0.205166 0.710978
vt 0.197792 0.718611
vt 0.197792 0.481447
vt 0.291543 0.710978
vt 0.291543 0.718611
vt 0.291543 0.489080
vt 0.291543 0.481447
vt 0.606529 0.247814
vt 0.606529 0.469712
vt 0.520152 0.469712
vt 0.520152 0.247814
vt 0.991748 0.277338
vt 0.991748 0.187977
vt 0.996570 0.187977
vt 0.996570 0.277338
vt 0.972634 0.187977
vt 0.972634 0.409876
vt 0.967812 0.409876
vt 0.967812 0.187977
vt 0.982852 0.586165
vt 0.982852 0.496762
vt 0.987674 0.496762
vt 0.987674 0.586165
vt 0.982852 0.675569
vt 0.987674 0.675569
vt 0.991748 0.366698
vt 0.996570 0.366698
vt 0.692906 0.247813
vt 0.692906 0.469712
vt 0.622115 0.954664
vt 0.622115 0.865677
vt 0.624852 0.865677
vt 0.624852 0.954664
vt 0.282857 0.725710
vt 0.414937 0.725710
vt 0.520152 0.240714
vt 0.520152 0.003550
vt 0.979760 0.904383
vt 0.985156 0.904383
vt 0.699765 0.469663
vt 0.699765 0.247814
vt 0.683199 0.863584
vt 0.683199 0.996450
vt 0.679838 0.996450
vt 0.679838 0.863584
vt 0.003430 0.725710
vt 0.136284 0.725710
vt 0.003430 0.718611
vt 0.003430 0.481447
vt 0.984889 0.187977
vt 0.979493 0.187977
vt 0.549987 0.729733
vt 0.425684 0.729733
vt 0.421796 0.725710
vt 0.553875 0.725710
vt 0.549987 0.818678
vt 0.553875 0.822700
vt 0.425684 0.818678
vt 0.421796 0.822700
vt 0.750878 0.991305
vt 0.750878 0.862646
vt 0.836812 0.862646
vt 0.836812 0.991305
vt 0.729690 0.992242
vt 0.729690 0.863584
vt 0.732421 0.863584
vt 0.732421 0.992242
vt 0.722831 0.863584
vt 0.722831 0.992242
vt 0.720094 0.992242
vt 0.720094 0.863584
vt 0.615256 0.865677
vt 0.615256 0.954664
vt 0.612519 0.954664
vt 0.612519 0.865677
vt 0.425115 0.916256
vt 0.550556 0.916256
vt 0.553875 0.919690
vt 0.421796 0.919690
vt 0.425115 0.826134
vt 0.550556 0.826134
vt 0.750878 0.855547
vt 0.750878 0.725710
vt 0.837949 0.725710
vt 0.837949 0.855547
vt 0.592690 0.955842
vt 0.592690 0.865677
vt 0.595745 0.865677
vt 0.595745 0.955842
vt 0.605660 0.865677
vt 0.605660 0.955842
vt 0.602604 0.955842
vt 0.602604 0.865677
vt 0.703326 0.863584
vt 0.703326 0.993420
vt 0.700271 0.993420
vt 0.700271 0.863584
vt 0.145386 0.917370
vt 0.273755 0.917370
vt 0.275998 0.919690
vt 0.143143 0.919690
vt 0.145386 0.825021
vt 0.143143 0.822700
vt 0.273755 0.825021
vt 0.275998 0.822700
vt 0.649957 0.725710
vt 0.649957 0.858577
vt 0.560734 0.858577
vt 0.560734 0.725710
vt 0.575611 0.865677
vt 0.575611 0.958070
vt 0.572250 0.958070
vt 0.572250 0.865677
vt 0.582470 0.958070
vt 0.582470 0.865677
vt 0.585830 0.865677
vt 0.585830 0.958070
vt 0.690058 0.996450
vt 0.690058 0.863584
vt 0.693411 0.863584
vt 0.693411 0.996450
vt 0.272744 0.729077
vt 0.146397 0.729077
vt 0.143143 0.725710
vt 0.275998 0.725710
vt 0.272744 0.819334
vt 0.146397 0.819334
vt 0.744018 0.725710
vt 0.744018 0.856484
vt 0.656817 0.856484
vt 0.656817 0.725711
vt 0.661473 0.863584
vt 0.661473 0.994357
vt 0.656817 0.994357
vt 0.656817 0.863584
vt 0.668332 0.994357
vt 0.668332 0.863584
vt 0.672979 0.863584
vt 0.672979 0.994357
vt 0.739280 0.953884
vt 0.739280 0.863584
vt 0.743937 0.863584
vt 0.743937 0.953884
vt 0.586516 0.481447
vt 0.764038 0.481447
vt 0.764038 0.718611
vt 0.586516 0.718611
vt 0.924938 0.247813
vt 0.924938 0.431556
vt 0.879331 0.431556
vt 0.879331 0.247814
vt 0.915008 0.187977
vt 0.915008 0.228768
vt 0.906694 0.228768
vt 0.906694 0.187977
vt 0.899835 0.003550
vt 0.899835 0.240714
vt 0.854228 0.240714
vt 0.854228 0.003550
vt 0.900372 0.728918
vt 0.900372 0.906245
vt 0.897274 0.909452
vt 0.897274 0.725710
vt 0.939763 0.906245
vt 0.939763 0.728918
vt 0.942860 0.725710
vt 0.942860 0.909452
vt 0.946085 0.003550
vt 0.946085 0.180878
vt 0.906694 0.180878
vt 0.906694 0.003550
vt 0.967812 0.180878
vt 0.967812 0.003550
vt 0.976108 0.003550
vt 0.976108 0.180878
vt 0.631711 0.906467
vt 0.631711 0.865677
vt 0.640025 0.865677
vt 0.640025 0.906467
vt 0.972901 0.725710
vt 0.972901 0.903038
vt 0.964587 0.903038
vt 0.964587 0.725710
vt 0.487583 0.926790
vt 0.491775 0.926790
vt 0.491775 0.956846
vt 0.487583 0.956846
vt 0.069932 0.934969
vt 0.065738 0.934969
vt 0.063928 0.934467
vt 0.062603 0.933096
vt 0.062118 0.931223
vt 0.062118 0.926883
vt 0.069932 0.926883
vt 0.448960 0.926790
vt 0.453151 0.926790
vt 0.453151 0.956846
vt 0.448960 0.956846
vt 0.631711 0.913567
vt 0.639525 0.913567
vt 0.639525 0.943623
vt 0.631711 0.943623
vt 0.919760 0.916552
vt 0.919760 0.946609
vt 0.911947 0.946609
vt 0.911947 0.916552
vt 0.084604 0.934969
vt 0.076791 0.934969
vt 0.076791 0.930629
vt 0.077276 0.928756
vt 0.078601 0.927384
vt 0.080410 0.926883
vt 0.084604 0.926883
vt 0.234040 0.926790
vt 0.234040 0.956846
vt 0.232202 0.956846
vt 0.232202 0.926790
vt 0.230794 0.956846
vt 0.230794 0.926790
vt 0.493599 0.926790
vt 0.493599 0.956846
vt 0.238225 0.926790
vt 0.238225 0.956846
vt 0.025915 0.934969
vt 0.021722 0.934969
vt 0.019912 0.934467
vt 0.018587 0.933096
vt 0.018102 0.931223
vt 0.018102 0.926883
vt 0.025915 0.926883
vt 0.897274 0.916552
vt 0.905088 0.916552
vt 0.905088 0.946609
vt 0.897274 0.946609
vt 0.165629 0.926790
vt 0.165629 0.956846
vt 0.157816 0.956846
vt 0.157816 0.926790
vt 0.537615 0.934877
vt 0.529802 0.934877
vt 0.529802 0.930536
vt 0.530287 0.928663
vt 0.531612 0.927292
vt 0.533422 0.926790
vt 0.537615 0.926790
vt 0.262619 0.926790
vt 0.262619 0.956846
vt 0.260782 0.956846
vt 0.260782 0.926790
vt 0.259373 0.956846
vt 0.259373 0.926790
vt 0.454975 0.926790
vt 0.454975 0.956846
vt 0.266804 0.926790
vt 0.266804 0.956846
vt 0.461834 0.926790
vt 0.466026 0.926790
vt 0.466026 0.956846
vt 0.461834 0.956846
vt 0.055259 0.934969
vt 0.051066 0.934969
vt 0.049256 0.934467
vt 0.047931 0.933096
vt 0.047446 0.931223
vt 0.047446 0.926883
vt 0.055259 0.926883
vt 0.201832 0.926790
vt 0.209645 0.926790
vt 0.209645 0.956846
vt 0.201832 0.956846
vt 0.180301 0.926790
vt 0.180301 0.956846
vt 0.172488 0.956846
vt 0.172488 0.926790
vt 0.508271 0.934877
vt 0.500458 0.934877
vt 0.500458 0.930536
vt 0.500943 0.928663
vt 0.502268 0.927292
vt 0.504077 0.926790
vt 0.508271 0.926790
vt 0.248330 0.926790
vt 0.248330 0.956846
vt 0.246492 0.956846
vt 0.246492 0.926790
vt 0.245084 0.956846
vt 0.245084 0.926790
vt 0.467850 0.926790
vt 0.467850 0.956846
vt 0.252514 0.926790
vt 0.252514 0.956846
vt 0.436085 0.926790
vt 0.440277 0.926790
vt 0.440277 0.956846
vt 0.436085 0.956846
vt 0.040587 0.934969
vt 0.036394 0.934969
vt 0.034584 0.934467
vt 0.033259 0.933096
vt 0.032774 0.931223
vt 0.032774 0.926883
vt 0.040587 0.926883
vt 0.879331 0.438655
vt 0.887144 0.438655
vt 0.887144 0.468712
vt 0.879331 0.468712
vt 0.194973 0.926790
vt 0.194973 0.956846
vt 0.187160 0.956846
vt 0.187160 0.926790
vt 0.522943 0.934877
vt 0.515130 0.934877
vt 0.515130 0.930536
vt 0.515615 0.928663
vt 0.516940 0.927292
vt 0.518750 0.926790
vt 0.522943 0.926790
vt 0.219750 0.926790
vt 0.219751 0.956846
vt 0.217913 0.956846
vt 0.217913 0.926790
vt 0.216505 0.956846
vt 0.216505 0.926790
vt 0.442101 0.926790
vt 0.442101 0.956846
vt 0.223935 0.926790
vt 0.223935 0.956846
vt 0.474709 0.926790
vt 0.478900 0.926790
vt 0.478900 0.956846
vt 0.474709 0.956846
vt 0.552288 0.934877
vt 0.548094 0.934877
vt 0.546284 0.934375
vt 0.544959 0.933003
vt 0.544474 0.931130
vt 0.544474 0.926790
vt 0.552288 0.926790
vt 0.894003 0.438655
vt 0.901816 0.438655
vt 0.901816 0.468712
vt 0.894003 0.468712
vt 0.150956 0.926790
vt 0.150956 0.956846
vt 0.143143 0.956846
vt 0.143143 0.926790
vt 0.011243 0.934969
vt 0.003430 0.934969
vt 0.003430 0.930629
vt 0.003915 0.928756
vt 0.005239 0.927384
vt 0.007049 0.926883
vt 0.011243 0.926883
vt 0.425042 0.926790
vt 0.425042 0.956846
vt 0.423204 0.956846
vt 0.423204 0.926790
vt 0.421796 0.956846
vt 0.421796 0.926790
vt 0.480724 0.926790
vt 0.480724 0.956846
vt 0.429226 0.926790
vt 0.429226 0.956846
vn -1.0000 0.0000 0.0000
vn 0.0000 0.0000 -1.0000
vn 1.0000 0.0000 0.0000
vn 0.0000 0.0000 1.0000
vn 0.0000 1.0000 0.0000
vn 0.0000 -1.0000 0.0000
vn 0.0000 0.9659 -0.2588
vn 0.0000 0.7071 -0.7071
vn 0.0000 0.2588 -0.9659
s off
f 10/1/1 2/2/1 4/3/1 9/4/1
f 13/5/2 14/6/2 8/7/2 11/8/2
f 11/9/3 8/10/3 6/11/3 12/12/3
f 23/13/4 20/14/4 2/15/4 10/16/4
f 28/17/5 29/18/5 48/19/5 47/20/5
f 22/21/5 4/22/5 2/23/5 20/24/5
f 82/25/6 34/26/6 10/27/6 9/28/6
f 102/29/6 82/25/6 9/28/6 19/30/6
f 41/31/6 65/32/6 11/33/6 12/34/6
f 18/35/6 41/31/6 12/34/6 15/36/6
f 24/37/6 18/35/6 15/36/6 23/38/6
f 65/32/6 101/39/6 13/40/6 11/33/6
f 8/41/5 14/42/5 16/43/5 6/44/5
f 101/45/3 18/46/3 98/47/3 103/48/3
f 12/49/4 6/50/4 16/51/4 15/52/4
f 19/53/2 22/54/2 14/6/2 13/5/2
f 9/55/2 4/56/2 22/54/2 19/53/2
f 50/57/1 75/58/1 74/59/1 30/60/1
f 34/26/6 24/37/6 23/38/6 10/27/6
f 101/39/6 102/29/6 19/30/6 13/40/6
f 14/42/5 22/21/5 20/24/5 16/43/5
f 15/52/4 16/51/4 20/14/4 23/13/4
f 74/61/6 73/62/6 43/63/6 30/64/6
f 90/65/6 89/66/6 32/67/6 36/68/6
f 61/69/4 25/70/4 39/71/4 63/72/4
f 92/73/3 59/74/3 32/75/3 89/76/3
f 59/77/4 58/78/4 36/79/4 32/80/4
f 51/81/4 50/82/4 30/83/4 43/84/4
f 68/85/5 67/86/5 80/87/5 79/88/5
f 83/89/3 27/90/3 93/91/3 96/92/3
f 3/93/1 1/94/1 34/95/1 82/96/1
f 26/97/1 25/98/1 90/99/1 36/100/1
f 61/101/1 3/93/1 82/96/1 91/102/1
f 62/103/1 26/97/1 36/100/1 58/104/1
f 64/105/1 63/106/1 39/107/1 40/108/1
f 1/109/6 3/110/6 37/111/6 38/112/6
f 62/113/2 1/114/2 38/115/2 64/116/2
f 25/117/5 26/118/5 40/119/5 39/120/5
f 5/121/3 7/122/3 65/123/3 41/124/3
f 29/125/3 28/126/3 43/127/3 73/128/3
f 53/129/3 5/121/3 41/124/3 51/130/3
f 54/131/3 29/125/3 73/128/3 76/132/3
f 56/133/3 55/134/3 47/135/3 48/136/3
f 53/137/2 28/138/2 47/139/2 55/140/2
f 7/141/6 5/142/6 45/143/6 46/144/6
f 54/145/4 7/146/4 46/147/4 56/148/4
f 29/149/4 54/145/4 56/148/4 48/150/4
f 5/151/2 53/137/2 55/140/2 45/152/2
f 46/153/3 45/154/3 55/134/3 56/133/3
f 7/122/3 54/131/3 76/132/3 65/123/3
f 28/126/3 53/129/3 51/130/3 43/127/3
f 49/155/1 17/156/1 70/157/1 72/158/1
f 41/159/4 18/160/4 50/82/4 51/81/4
f 18/161/1 101/162/1 75/58/1 50/57/1
f 26/163/2 62/113/2 64/116/2 40/164/2
f 38/165/1 37/166/1 63/106/1 64/105/1
f 1/94/1 62/103/1 58/104/1 34/95/1
f 25/98/1 61/101/1 91/102/1 90/99/1
f 60/167/6 57/168/6 88/169/6 87/170/6
f 24/171/4 34/172/4 58/78/4 59/77/4
f 102/173/3 24/174/3 59/74/3 92/73/3
f 3/175/4 61/69/4 63/72/4 37/176/4
f 42/177/2 17/178/2 101/179/2 65/180/2
f 52/181/2 42/177/2 65/180/2 76/182/2
f 17/178/2 49/183/2 75/184/2 101/179/2
f 49/183/2 52/181/2 76/182/2 75/184/2
f 70/185/2 69/186/2 71/187/2 72/188/2
f 17/189/5 42/190/5 69/191/5 70/192/5
f 52/193/6 49/194/6 72/195/6 71/196/6
f 42/197/3 52/198/3 71/199/3 69/200/3
f 31/201/2 44/202/2 73/203/2 74/204/2
f 68/205/2 31/201/2 74/204/2 75/184/2
f 44/202/2 67/206/2 76/182/2 73/203/2
f 67/206/2 68/205/2 75/184/2 76/182/2
f 79/207/2 80/208/2 77/209/2 78/210/2
f 31/211/1 68/212/1 79/213/1 78/214/1
f 67/215/3 44/216/3 77/217/3 80/218/3
f 44/219/6 31/220/6 78/221/6 77/222/6
f 21/223/2 33/224/2 82/225/2 102/226/2
f 60/227/2 21/223/2 102/226/2 92/228/2
f 33/224/2 57/229/2 91/230/2 82/225/2
f 57/229/2 60/227/2 92/228/2 91/230/2
f 86/231/2 85/232/2 87/233/2 88/234/2
f 21/235/3 60/236/3 87/237/3 85/238/3
f 57/239/1 33/240/1 86/241/1 88/242/1
f 33/243/5 21/244/5 85/245/5 86/246/5
f 35/247/2 27/248/2 89/249/2 90/250/2
f 84/251/2 35/247/2 90/250/2 91/230/2
f 27/248/2 83/252/2 92/228/2 89/249/2
f 83/252/2 84/251/2 91/230/2 92/228/2
f 95/253/2 96/254/2 93/255/2 94/256/2
f 27/257/6 35/258/6 94/259/6 93/260/6
f 84/261/5 83/262/5 96/263/5 95/264/5
f 35/265/1 84/266/1 95/267/1 94/268/1
f 104/269/6 103/270/6 98/271/6 97/272/6
f 18/273/4 24/274/4 97/275/4 98/276/4
f 66/277/3 99/278/3 107/279/3 105/280/3
f 24/281/1 102/282/1 104/283/1 97/284/1
f 66/285/2 81/286/2 102/287/2 101/288/2
f 100/289/2 99/290/2 103/291/2 104/292/2
f 99/290/2 66/285/2 101/288/2 103/291/2
f 81/286/2 100/289/2 104/292/2 102/287/2
f 106/293/2 105/294/2 107/295/2 108/296/2
f 81/297/5 66/298/5 105/299/5 106/300/5
f 100/301/1 81/302/1 106/303/1 108/304/1
f 99/305/6 100/306/6 108/307/6 107/308/6
f 111/309/2 118/310/2 121/311/2 115/312/2
f 115/313/3 121/314/3 123/315/3 124/316/3 122/317/3 114/318/3 113/319/3
f 125/320/2 130/321/2 133/322/2 128/323/2
f 113/324/4 114/325/4 110/326/4 109/327/4
f 111/328/6 115/329/6 113/330/6 109/331/6
f 109/332/1 110/333/1 117/334/1 119/335/1 120/336/1 118/337/1 111/338/1
f 117/339/7 122/340/7 124/341/7 119/342/7
f 119/342/8 124/341/8 123/343/8 120/344/8
f 120/345/9 123/346/9 121/311/9 118/310/9
f 122/340/5 117/339/5 110/347/5 114/348/5
f 128/349/3 133/350/3 135/351/3 136/352/3 134/353/3 127/354/3 126/355/3
f 126/356/4 127/357/4 112/358/4 116/359/4
f 125/360/6 128/361/6 126/362/6 116/363/6
f 116/364/1 112/365/1 129/366/1 131/367/1 132/368/1 130/369/1 125/370/1
f 129/371/7 134/372/7 136/373/7 131/374/7
f 131/374/8 136/373/8 135/375/8 132/376/8
f 132/377/9 135/378/9 133/322/9 130/321/9
f 134/372/5 129/371/5 112/379/5 127/380/5
f 139/381/2 144/382/2 147/383/2 142/384/2
f 142/385/3 147/386/3 149/387/3 150/388/3 148/389/3 141/390/3 140/391/3
f 140/392/4 141/393/4 137/394/4 138/395/4
f 139/396/6 142/397/6 140/398/6 138/399/6
f 138/400/1 137/401/1 143/402/1 145/403/1 146/404/1 144/405/1 139/406/1
f 143/407/7 148/408/7 150/409/7 145/410/7
f 145/410/8 150/409/8 149/411/8 146/412/8
f 146/413/9 149/414/9 147/383/9 144/382/9
f 148/408/5 143/407/5 137/415/5 141/416/5
f 153/417/2 158/418/2 161/419/2 156/420/2
f 156/421/3 161/422/3 163/423/3 164/424/3 162/425/3 155/426/3 154/427/3
f 154/428/4 155/429/4 151/430/4 152/431/4
f 153/432/6 156/433/6 154/434/6 152/435/6
f 152/436/1 151/437/1 157/438/1 159/439/1 160/440/1 158/441/1 153/442/1
f 157/443/7 162/444/7 164/445/7 159/446/7
f 159/446/8 164/445/8 163/447/8 160/448/8
f 160/449/9 163/450/9 161/419/9 158/418/9
f 162/444/5 157/443/5 151/451/5 155/452/5
f 167/453/2 172/454/2 175/455/2 170/456/2
f 170/457/3 175/458/3 177/459/3 178/460/3 176/461/3 169/462/3 168/463/3
f 168/464/4 169/465/4 165/466/4 166/467/4
f 167/468/6 170/469/6 168/470/6 166/471/6
f 166/472/1 165/473/1 171/474/1 173/475/1 174/476/1 172/477/1 167/478/1
f 171/479/7 176/480/7 178/481/7 173/482/7
f 173/482/8 178/481/8 177/483/8 174/484/8
f 174/485/9 177/486/9 175/455/9 172/454/9
f 176/480/5 171/479/5 165/487/5 169/488/5
