# Blender v2.79 (sub 0) OBJ File: 'room.blend'
# www.blender.org
mtllib fireplace.mtl
o Fireplace_Cube.002
v -2.966941 -0.098286 4.496778
v -2.966941 0.727820 4.496778
v -2.966941 -0.098286 -5.610118
v -2.966941 0.727820 -5.610118
v 2.112055 -0.098286 4.496778
v 2.112055 -0.098286 -5.610118
v 0.061695 -0.098286 -5.610118
v 0.061695 0.924748 -4.825229
v 0.061695 -0.098286 4.496778
v 0.061695 0.924748 3.711890
v -2.966941 7.623543 4.496778
v -2.966941 7.623543 -5.610118
v 0.061695 6.250692 3.711890
v 0.061695 6.250692 -4.825229
v -2.966941 9.548295 4.496778
v -2.966941 9.548295 -5.610118
v 0.061695 9.548295 4.496778
v 0.061695 9.548295 -5.610118
v 0.061695 0.727820 -5.610118
v 0.061695 0.727820 4.496778
v 0.061695 7.623543 -5.610118
v 0.061695 7.623543 4.496778
v -2.635541 0.924748 -4.825229
v -2.635541 0.924748 3.711890
v -2.635541 6.250692 -4.825229
v -2.635541 6.250692 3.711890
v 0.523508 9.548295 -5.610118
v 0.591419 9.480384 -5.610118
v 0.523508 9.548295 -5.610118
v 0.571529 9.528405 -5.610118
v 0.591419 9.480384 4.496778
v 0.523508 9.548295 4.496778
v 0.523508 9.548295 4.496778
v 0.571529 9.528405 4.496778
v 2.112055 0.637092 4.496778
v 2.021327 0.727820 4.496778
v 2.099900 0.682456 4.496778
v 2.066691 0.715665 4.496778
v 2.021327 0.727820 -5.610118
v 2.112055 0.637092 -5.610118
v 2.066691 0.715665 -5.610118
v 2.099900 0.682456 -5.610118
v 0.591419 7.703757 -5.610118
v 0.505579 7.627804 -5.610118
v 0.566277 7.650050 -5.610118
v 0.505579 7.627804 4.496778
v 0.591419 7.703757 4.496778
v 0.566277 7.650050 4.496778
vt 0.467625 0.881337
vt 0.467625 1.018093
vt -1.479099 1.018093
vt -1.479099 0.881337
vt 2.432778 0.928302
vt 2.291134 0.928302
vt 2.282396 0.926289
vt 2.276000 0.920792
vt 2.273659 0.913282
vt 2.273659 0.588877
vt 2.432778 0.588877
vt 2.273659 0.443877
vt 2.432778 0.443877
vt 0.467625 -0.782564
vt 0.467625 -0.444007
vt -1.479099 -0.444007
vt -1.479099 -0.782564
vt 0.945449 0.588878
vt 0.945449 0.443877
vt 2.521441 -0.927801
vt 2.521441 -0.806094
vt 0.574717 -0.806094
vt 0.574717 -0.927801
vt 0.467625 -0.927194
vt -1.479099 -0.927194
vt 0.574717 1.165343
vt 0.733836 1.165343
vt 0.733836 1.489748
vt 0.731495 1.497258
vt 0.725098 1.502755
vt 0.716361 1.504767
vt 0.574717 1.504767
vt 0.574717 1.020342
vt 0.733836 1.020342
vt 2.062045 1.165343
vt 2.062045 1.020342
vt 2.432778 1.020342
vt 2.432778 1.165343
vt -1.479099 -1.361790
vt -0.453250 -1.361790
vt -0.453250 -1.236373
vt -1.479099 -1.236372
vt 0.467626 2.159636
vt -1.479099 2.159637
vt 0.467626 2.478267
vt -1.479099 2.478267
vt 0.574717 0.588878
vt 0.574717 0.443877
vt 0.944629 0.662360
vt 0.940344 0.672408
vt 0.929999 0.676570
vt 0.587798 0.676570
vt 0.574717 0.665328
vt 2.432778 1.241793
vt 2.419697 1.253035
vt 2.077495 1.253036
vt 2.067151 1.248873
vt 2.062865 1.238825
vt 0.574717 -1.319865
vt 2.521440 -1.319865
vt 2.521440 -1.246520
vt 0.574717 -1.246520
vt 0.316445 -0.319374
vt -1.327919 -0.319374
vt -1.479099 -0.351966
vt 0.467625 -0.351966
vt -1.327918 0.562085
vt 0.316445 0.562085
vt 0.467625 0.789295
vt -1.479098 0.789296
vt 0.574717 1.596808
vt 2.219080 1.596808
vt 2.219080 2.478267
vt 0.574717 2.478267
vt 0.574717 -1.144194
vt 2.219080 -1.144194
vt 2.219080 -1.019842
vt 0.574717 -1.019842
vt 1.600565 -1.411906
vt 0.574717 -1.411906
vt 0.574717 -1.537323
vt 1.600565 -1.537323
vt 0.165264 -1.019235
vt -1.479099 -1.019235
vt -1.479099 -1.144331
vt 0.165264 -1.144332
vt -1.532645 2.524287
vt -1.532645 2.524287
vt -1.532645 2.524287
vt 2.428947 1.249743
vt 0.578548 0.673278
vt -1.532645 2.524287
vt -1.532645 2.524287
vt -1.532645 2.524287
vt 2.521441 -0.698191
vt 0.574717 -0.698191
vt 0.574717 -0.706501
vt 2.521441 -0.706501
vt 2.521441 -0.075727
vt 0.574717 -0.075727
vt 0.574717 -0.083748
vt 2.521441 -0.083748
vt 0.574717 -0.478621
vt 2.521441 -0.478622
vt 2.521441 0.030187
vt 0.574717 0.030187
vt 0.574717 0.022480
vt 2.521441 0.022480
vt 0.574717 0.016314
vt 2.521441 0.016314
vt 2.521441 -0.798542
vt 0.574717 -0.798542
vt 2.521441 0.351836
vt 0.574717 0.351836
vt 2.521441 -0.377784
vt 0.574717 -0.377784
vt 0.574717 -0.386580
vt 2.521441 -0.386581
vt 2.521440 -1.236235
vt 0.574717 -1.236235
vn -1.0000 0.0000 0.0000
vn 0.0000 0.0000 1.0000
vn 0.0000 -1.0000 0.0000
vn 1.0000 0.0000 0.0000
vn -0.0000 0.0000 -1.0000
vn 0.0096 -1.0000 0.0000
vn 0.0000 1.0000 0.0000
vn 0.3827 0.9239 0.0000
vn 0.9239 0.3827 0.0000
vn 0.2588 0.9659 0.0000
vn 0.7071 0.7071 0.0000
vn 0.9659 0.2588 0.0000
vn 0.9057 -0.4240 0.0000
vn 0.3441 -0.9389 0.0000
usemtl Fireplace
s off
f 1/1/1 2/2/1 4/3/1 3/4/1
f 5/5/2 35/6/2 37/7/2 38/8/2 36/9/2 20/10/2 9/11/2
f 9/11/2 20/10/2 2/12/2 1/13/2
f 7/14/3 6/15/3 5/16/3 9/17/3
f 2/12/2 20/10/2 22/18/2 11/19/2
f 6/20/4 40/21/4 35/22/4 5/23/4
f 3/24/3 7/14/3 9/17/3 1/25/3
f 7/26/5 19/27/5 39/28/5 41/29/5 42/30/5 40/31/5 6/32/5
f 3/33/5 4/34/5 19/27/5 7/26/5
f 21/35/5 12/36/5 16/37/5 18/38/5
f 13/39/5 10/40/5 24/41/5 26/42/5
f 4/3/1 2/2/1 11/43/1 12/44/1
f 19/27/5 4/34/5 12/36/5 21/35/5
f 12/44/1 11/43/1 15/45/1 16/46/1
f 11/19/2 22/18/2 17/47/2 15/48/2
f 17/47/2 22/18/2 46/49/2 48/50/2 47/51/2 31/52/2 33/53/2
f 21/35/5 18/38/5 29/54/5 28/55/5 43/56/5 45/57/5 44/58/5
f 22/59/6 21/60/6 44/61/6 46/62/6
f 8/63/4 10/64/4 20/65/4 19/66/4
f 13/67/4 14/68/4 21/69/4 22/70/4
f 10/64/4 13/67/4 22/70/4 20/65/4
f 14/68/4 8/63/4 19/66/4 21/69/4
f 24/71/4 23/72/4 25/73/4 26/74/4
f 10/75/7 8/76/7 23/77/7 24/78/7
f 8/79/2 14/80/2 25/81/2 23/82/2
f 14/83/3 13/84/3 26/85/3 25/86/3
f 27/87/2 30/88/2 29/89/2
f 30/90/5 28/55/5 29/54/5
f 31/52/2 34/91/2 33/53/2
f 34/92/2 32/93/2 33/94/2
f 27/95/8 32/96/8 34/97/8 30/98/8
f 30/99/9 34/100/9 31/101/9 28/102/9
f 15/103/7 32/96/7 27/95/7 16/104/7
f 39/105/10 36/106/10 38/107/10 41/108/10
f 41/108/11 38/107/11 37/109/11 42/110/11
f 42/111/12 37/112/12 35/22/12 40/21/12
f 39/105/7 19/113/7 20/114/7 36/106/7
f 43/115/13 47/116/13 48/117/13 45/118/13
f 45/119/14 48/120/14 46/62/14 44/61/14
f 47/116/4 43/115/4 28/102/4 31/101/4
