# Blender v2.79 (sub 0) OBJ File: 'room.blend'
# www.blender.org
mtllib small_window_wall.mtl
o Wall.002_Plane.001
v -1.396859 0.036705 -25.758020
v -1.396872 0.036705 13.538771
v -1.396858 20.371655 -25.758020
v -1.396872 20.371655 13.538771
v -1.396859 10.378252 -25.758020
v -1.396872 10.378252 13.538771
v -1.396859 9.753088 -25.758020
v -1.396872 9.753088 13.538771
v -1.396860 20.371655 -19.309635
v -1.396861 0.036705 -19.309635
v -1.098894 10.378252 13.538771
v -0.971305 10.287159 13.538771
v -1.008675 10.351572 13.538771
v -0.971292 10.287159 -25.758020
v -1.098881 10.378252 -25.758020
v -1.008662 10.351572 -25.758020
v -0.971305 9.868629 13.538771
v -1.133140 9.753088 13.538771
v -1.018706 9.786929 13.538771
v -1.133127 9.753088 -25.758020
v -0.971292 9.868629 -25.758020
v -1.018692 9.786929 -25.758020
v -1.396861 10.378252 -19.309635
v -1.396861 9.753088 -19.309635
v -1.098883 10.378252 -19.309635
v -1.008664 10.351572 -19.309635
v -0.971294 10.287159 -19.309635
v -0.971294 9.868629 -19.309635
v -1.018695 9.786929 -19.309635
v -1.133129 9.753088 -19.309635
v -1.396861 0.036705 -18.995886
v -1.098884 10.378252 -18.995888
v -1.396860 20.371655 -18.995886
v -1.396861 9.753088 -18.995886
v -1.008664 10.351572 -18.995888
v -0.971295 10.287159 -18.995888
v -1.396861 10.378252 -18.995886
v -1.018695 9.786929 -18.995888
v -1.133129 9.753088 -18.995888
v -0.971295 9.868629 -18.995888
v -1.174498 9.753088 -18.995888
v -1.174497 9.753088 -19.309635
v -1.174498 0.036705 -19.309635
v -1.174498 0.036705 -18.995888
v -1.396864 0.036705 -9.693932
v -1.008668 10.351572 -9.693932
v -0.971298 10.287159 -9.693932
v -1.018698 9.786929 -9.693932
v -1.133132 9.753088 -9.693932
v -1.098887 10.378252 -9.693933
v -1.396864 20.371655 -9.693932
v -1.396864 9.753088 -9.693932
v -1.396864 10.378252 -9.693932
v -0.971298 9.868629 -9.693932
v -1.396865 0.036705 -9.261136
v -1.008668 10.351572 -9.261136
v -0.971298 10.287159 -9.261136
v -1.018698 9.786929 -9.261136
v -1.133132 9.753088 -9.261136
v -1.098887 10.378252 -9.261137
v -1.396864 20.371655 -9.261137
v -1.396864 9.753088 -9.261137
v -1.396865 12.891186 -7.097091
v -0.971298 9.868629 -9.261137
v -1.173136 9.753088 -9.261137
v -1.173136 9.753088 -9.693932
v -1.173136 0.036705 -9.693932
v -1.173136 0.036705 -9.261136
v -1.396868 0.036705 2.030313
v -1.008672 10.351572 2.030312
v -0.971302 10.287159 2.030312
v -1.018702 9.786929 2.030312
v -1.133136 9.753088 2.030312
v -1.098891 10.378252 2.030311
v -1.396868 20.371655 2.030312
v -1.396868 9.753088 2.030312
v -1.396867 12.891186 -0.133735
v -0.971302 9.868629 2.030311
v -1.396869 0.036705 2.534278
v -1.008672 10.351572 2.534277
v -0.971302 10.287159 2.534277
v -1.018702 9.786929 2.534277
v -1.133136 9.753088 2.534277
v -1.098891 10.378252 2.534276
v -1.396868 20.371655 2.534277
v -1.396868 9.753088 2.534277
v -1.396868 10.378252 2.534277
v -0.971302 9.868629 2.534276
v -1.054607 9.753088 2.534276
v -1.054607 9.753088 2.030311
v -1.054607 0.036705 2.030312
v -1.054607 0.036705 2.534277
v -1.264138 9.753088 -25.758020
v -1.264139 0.036705 -25.758020
v -1.264148 0.036705 2.534277
v -1.264152 0.036705 13.538771
v -1.264152 9.753088 13.538771
v -1.264141 9.753088 -19.309635
v -1.264141 0.036705 -19.309635
v -1.264144 9.753088 -9.693932
v -1.264141 9.753088 -18.995888
v -1.264141 0.036705 -18.995888
v -1.264144 0.036705 -9.693932
v -1.264148 9.753088 2.030311
v -1.264144 9.753088 -9.261137
v -1.264144 0.036705 -9.261135
v -1.264148 0.036705 2.030312
v -1.264148 9.753088 2.534276
v -1.396867 19.385502 -0.133735
v -1.396868 10.378252 2.030312
v -1.396865 19.385502 -7.097091
v -1.396864 10.378252 -9.261137
v -1.707161 12.502539 -0.034151
v -1.707161 19.671885 -0.034151
v -1.707161 12.502539 -7.203490
v -1.707161 19.671885 -7.203490
v -1.097012 13.126554 -0.665477
v -1.097012 19.047869 -0.665477
v -1.097012 13.126554 -6.572161
v -1.097012 19.047869 -6.572161
v -1.097012 19.671885 -7.203493
v -1.097012 12.502539 -7.203493
v -1.097012 12.502539 -0.034144
v -1.097012 19.671885 -0.034144
v -1.333500 19.047869 -6.572161
v -1.333500 13.126554 -6.572161
v -1.333500 13.126554 -0.665477
v -1.333500 19.047869 -0.665477
vt 0.462063 0.479833
vt 0.006207 0.479833
vt 0.006207 0.655186
vt 0.462063 0.655186
vt 0.825949 0.487428
vt 0.821065 0.487428
vt 0.821065 0.987428
vt 0.825949 0.987428
vt 0.944044 0.568535
vt 0.933864 0.568535
vt 0.933864 0.677246
vt 0.944044 0.677246
vt 0.199098 0.773001
vt 0.210064 0.773001
vt 0.213385 0.771628
vt 0.214760 0.768313
vt 0.214760 0.746776
vt 0.213016 0.742571
vt 0.208804 0.740830
vt 0.199098 0.740830
vt 0.944044 0.677246
vt 0.953054 0.677246
vt 0.953054 0.568535
vt 0.944044 0.568535
vt 0.183436 0.773001
vt 0.193142 0.773001
vt 0.197353 0.771259
vt 0.199098 0.767055
vt 0.199098 0.745517
vt 0.197722 0.742203
vt 0.194402 0.740830
vt 0.183436 0.740830
vt 0.930614 0.568535
vt 0.930614 0.677246
vt 0.903364 0.123467
vt 0.906473 0.123467
vt 0.906473 0.014756
vt 0.903364 0.014756
vt 0.926671 0.491725
vt 0.906473 0.491725
vt 0.906473 0.677246
vt 0.926671 0.677246
vt 0.926671 0.123467
vt 0.930614 0.123467
vt 0.930614 0.014756
vt 0.926671 0.014756
vt 0.957176 0.568535
vt 0.957176 0.677246
vt 0.944044 0.200277
vt 0.953054 0.200277
vt 0.953054 0.014756
vt 0.944044 0.014756
vt 0.957176 0.563245
vt 0.953054 0.563245
vt 0.926671 0.128756
vt 0.930614 0.128756
vt 0.903364 0.128756
vt 0.906473 0.128756
vt 0.933864 0.563245
vt 0.930614 0.563245
vt 0.944044 0.563245
vt 0.821064 0.487428
vt 0.816180 0.487428
vt 0.816180 0.987428
vt 0.821064 0.987428
vt 0.462063 0.029003
vt 0.006207 0.029003
vt 0.006207 0.131756
vt 0.462063 0.131756
vt 0.944044 0.406427
vt 0.933864 0.406427
vt 0.930614 0.406427
vt 0.903364 0.285574
vt 0.906473 0.285574
vt 0.926671 0.285574
vt 0.930614 0.285574
vt 0.957176 0.406427
vt 0.953054 0.406427
vt 0.944044 0.563245
vt 0.254215 0.748930
vt 0.254215 0.740830
vt 0.248555 0.740830
vt 0.248555 0.748930
vt 0.006207 0.136756
vt 0.462063 0.136756
vt 0.805636 0.487428
vt 0.805636 0.987428
vt 0.811295 0.987428
vt 0.811295 0.487428
vt 0.789645 0.487428
vt 0.781461 0.487428
vt 0.781461 0.987428
vt 0.789645 0.987428
vt 0.259874 0.748930
vt 0.259874 0.740830
vt 0.254215 0.740830
vt 0.254215 0.748930
vt 0.797829 0.487428
vt 0.789645 0.487428
vt 0.789645 0.987428
vt 0.797829 0.987428
vt 0.957176 0.399131
vt 0.953054 0.399131
vt 0.926671 0.292871
vt 0.930614 0.292871
vt 0.903364 0.292871
vt 0.906473 0.292871
vt 0.933864 0.399131
vt 0.930614 0.399131
vt 0.944044 0.399131
vt 0.944044 0.406427
vt 0.168906 0.908332
vt 0.173749 0.908332
vt 0.173749 0.740830
vt 0.168906 0.740830
vt 0.006207 0.284980
vt 0.462063 0.284980
vt 0.944044 0.208773
vt 0.933864 0.208773
vt 0.930614 0.208773
vt 0.903364 0.483229
vt 0.906473 0.483229
vt 0.926671 0.483229
vt 0.930614 0.483229
vt 0.957176 0.208773
vt 0.953054 0.208773
vt 0.944044 0.399131
vt 0.240748 0.748980
vt 0.240748 0.740830
vt 0.232942 0.740830
vt 0.232942 0.748980
vt 0.006207 0.291876
vt 0.462063 0.291876
vt 0.797829 0.487428
vt 0.797829 0.987428
vt 0.805636 0.987428
vt 0.805636 0.487428
vt 0.773227 0.487428
vt 0.764993 0.487428
vt 0.764993 0.987428
vt 0.773227 0.987428
vt 0.248555 0.748980
vt 0.248555 0.740830
vt 0.240748 0.740830
vt 0.240748 0.748980
vt 0.781461 0.487428
vt 0.773227 0.487428
vt 0.773227 0.987428
vt 0.781461 0.987428
vt 0.957176 0.200277
vt 0.930614 0.491725
vt 0.903364 0.491725
vt 0.933864 0.200277
vt 0.930614 0.200277
vt 0.944044 0.200277
vt 0.944044 0.208773
vt 0.178592 0.740830
vt 0.173749 0.740830
vt 0.173749 0.856947
vt 0.178592 0.856947
vt 0.944044 0.014756
vt 0.933864 0.014756
vt 0.930614 0.014756
vt 0.903364 0.677246
vt 0.930614 0.677246
vt 0.957176 0.014756
vt 0.968969 0.014756
vt 0.957176 0.014756
vt 0.957176 0.482863
vt 0.968969 0.482863
vt 0.462063 0.471802
vt 0.006207 0.471802
vt 0.755902 0.487428
vt 0.755902 0.987428
vt 0.764993 0.987428
vt 0.764993 0.487428
vt 0.223851 0.753298
vt 0.223851 0.740830
vt 0.214760 0.740830
vt 0.214760 0.753298
vt 0.980762 0.014756
vt 0.968969 0.014756
vt 0.968969 0.482863
vt 0.980762 0.482863
vt 0.232942 0.753298
vt 0.232942 0.740830
vt 0.223851 0.740830
vt 0.223851 0.753298
vt 0.715507 0.038958
vt 0.715507 0.437604
vt 0.873773 0.437604
vt 0.873773 0.038958
vt 0.651030 0.520269
vt 0.651030 0.956184
vt 0.735076 0.955440
vt 0.735076 0.519525
vt 0.633990 0.912263
vt 0.633990 0.564299
vt 0.517219 0.564299
vt 0.517219 0.912263
vt 0.663842 0.410840
vt 0.663842 0.065722
vt 0.523255 0.065722
vt 0.523255 0.410840
vt 0.855215 0.690755
vt 0.860059 0.690755
vt 0.860058 0.487428
vt 0.855215 0.487428
vt 0.811295 0.987428
vt 0.816180 0.987428
vt 0.816180 0.487428
vt 0.811295 0.487428
vt 0.840603 0.487428
vt 0.835718 0.487428
vt 0.835718 0.987428
vt 0.840603 0.987428
vt 0.855215 0.487428
vt 0.850372 0.487428
vt 0.850372 0.690755
vt 0.855215 0.690755
vt 0.830834 0.487428
vt 0.825949 0.487428
vt 0.825949 0.987428
vt 0.830834 0.987428
vt 0.178592 0.856947
vt 0.183436 0.856947
vt 0.183435 0.740830
vt 0.178592 0.740830
vt 0.855215 0.690755
vt 0.850372 0.690755
vt 0.850372 0.888916
vt 0.855215 0.888916
vt 0.845487 0.487428
vt 0.840603 0.487428
vt 0.840603 0.987428
vt 0.845487 0.987428
vt 0.168906 0.740830
vt 0.164062 0.740830
vt 0.164062 0.908332
vt 0.168906 0.908332
vt 0.850372 0.487428
vt 0.845487 0.487428
vt 0.845487 0.987428
vt 0.850372 0.987428
vt 0.835718 0.487428
vt 0.830834 0.487428
vt 0.830834 0.987428
vt 0.835718 0.987428
vt 0.855215 0.888916
vt 0.860059 0.888916
vt 0.860058 0.690755
vt 0.855215 0.690755
vt 0.040751 0.437319
vt 0.040751 0.326360
vt 0.427520 0.326360
vt 0.427520 0.437319
vt 0.000000 0.000000
vt 0.000000 0.000000
vt 0.000000 0.000000
vt 0.000000 0.000000
vt 0.000000 0.000000
vt 0.000000 0.000000
vt 0.000000 0.000000
vt 0.000000 0.000000
vt 0.000000 0.000000
vt 0.000000 0.000000
vt 0.000000 0.000000
vt 0.000000 0.000000
vt 0.000000 0.000000
vt 0.000000 0.000000
vt 0.000000 0.000000
vt 0.000000 0.000000
vn 1.0000 -0.0000 0.0000
vn 0.0000 0.0000 1.0000
vn 0.0000 1.0000 0.0000
vn -0.0000 0.0000 -1.0000
vn 0.0000 -1.0000 0.0000
vn 0.2836 0.9589 0.0000
vn 0.8650 0.5018 0.0000
vn 0.8650 -0.5018 0.0000
vn 0.2836 -0.9589 0.0000
vn -0.8579 -0.5137 0.0000
vn -0.8606 0.0000 0.5093
vn -0.8606 0.0000 -0.5093
vn -0.8579 0.5137 0.0000
usemtl Wall
s off
f 87/1/1 85/2/1 4/3/1 6/4/1
f 10/5/2 99/6/2 98/7/2 24/8/2
f 23/9/3 25/10/3 15/11/3 5/12/3
f 5/13/4 15/14/4 16/15/4 14/16/4 21/17/4 22/18/4 20/19/4 7/20/4
f 7/21/5 20/22/5 30/23/5 24/24/5
f 8/25/2 18/26/2 19/27/2 17/28/2 12/29/2 13/30/2 11/31/2 6/32/2
f 25/10/6 26/33/6 16/34/6 15/11/6
f 26/35/7 27/36/7 14/37/7 16/38/7
f 88/39/1 81/40/1 12/41/1 17/42/1
f 28/43/8 29/44/8 22/45/8 21/46/8
f 29/47/9 30/23/9 20/22/9 22/48/9
f 86/49/5 83/50/5 18/51/5 8/52/5
f 38/53/9 39/54/9 30/23/9 29/47/9
f 40/55/8 38/56/8 29/44/8 28/43/8
f 21/46/1 14/37/1 27/36/1 28/43/1
f 35/57/7 36/58/7 27/36/7 26/35/7
f 32/59/6 35/60/6 26/33/6 25/10/6
f 37/61/3 32/59/3 25/10/3 23/9/3
f 86/62/4 108/63/4 95/64/4 79/65/4
f 5/66/1 3/67/1 9/68/1 23/69/1
f 53/70/3 50/71/3 32/59/3 37/61/3
f 50/71/6 46/72/6 35/60/6 32/59/6
f 46/73/7 47/74/7 36/58/7 35/57/7
f 54/75/8 48/76/8 38/56/8 40/55/8
f 48/77/9 49/78/9 39/54/9 38/53/9
f 24/24/5 30/23/5 39/54/5 34/79/5
f 28/43/1 27/36/1 36/58/1 40/55/1
f 10/80/5 43/81/5 44/82/5 31/83/5
f 23/69/1 9/68/1 33/84/1 37/85/1
f 43/86/1 42/87/1 41/88/1 44/89/1
f 24/90/4 42/91/4 43/92/4 10/93/4
f 34/94/3 41/95/3 42/96/3 24/97/3
f 31/98/2 44/99/2 41/100/2 34/101/2
f 58/102/9 59/103/9 49/78/9 48/77/9
f 64/104/8 58/105/8 48/76/8 54/75/8
f 56/106/7 57/107/7 47/74/7 46/73/7
f 60/108/6 56/109/6 46/72/6 50/71/6
f 112/110/3 60/108/3 50/71/3 53/70/3
f 34/79/5 39/54/5 49/78/5 52/111/5
f 40/55/1 36/58/1 47/74/1 54/75/1
f 31/112/5 102/113/5 103/114/5 45/115/5
f 37/85/1 33/84/1 51/116/1 53/117/1
f 110/118/3 74/119/3 60/108/3 112/110/3
f 74/119/6 70/120/6 56/109/6 60/108/6
f 70/121/7 71/122/7 57/107/7 56/106/7
f 78/123/8 72/124/8 58/105/8 64/104/8
f 72/125/9 73/126/9 59/103/9 58/102/9
f 52/111/5 49/78/5 59/103/5 62/127/5
f 54/75/1 47/74/1 57/107/1 64/104/1
f 45/128/5 67/129/5 68/130/5 55/131/5
f 53/117/1 51/116/1 61/132/1 112/133/1
f 67/134/1 66/135/1 65/136/1 68/137/1
f 52/138/4 66/139/4 67/140/4 45/141/4
f 62/142/3 65/143/3 66/144/3 52/145/3
f 55/146/2 68/147/2 65/148/2 62/149/2
f 82/150/9 83/50/9 73/126/9 72/125/9
f 88/39/8 82/151/8 72/124/8 78/123/8
f 80/152/7 81/40/7 71/122/7 70/121/7
f 84/153/6 80/154/6 70/120/6 74/119/6
f 87/155/3 84/153/3 74/119/3 110/118/3
f 62/127/5 59/103/5 73/126/5 76/156/5
f 64/104/1 57/107/1 71/122/1 78/123/1
f 24/157/3 98/158/3 93/159/3 7/160/3
f 6/161/3 11/162/3 84/153/3 87/155/3
f 11/162/6 13/163/6 80/154/6 84/153/6
f 13/164/7 12/41/7 81/40/7 80/152/7
f 17/42/8 19/165/8 82/151/8 88/39/8
f 19/166/9 18/51/9 83/50/9 82/150/9
f 76/156/5 73/126/5 83/50/5 86/49/5
f 78/123/1 71/122/1 81/40/1 88/39/1
f 76/167/4 90/168/4 91/169/4 69/170/4
f 110/171/1 75/172/1 85/2/1 87/1/1
f 91/173/1 90/174/1 89/175/1 92/176/1
f 86/177/3 89/178/3 90/179/3 76/180/3
f 79/181/2 92/182/2 89/183/2 86/184/2
f 69/185/5 91/186/5 92/187/5 79/188/5
f 95/189/1 108/190/1 97/191/1 96/192/1
f 94/193/1 93/194/1 98/195/1 99/196/1
f 102/197/1 101/198/1 100/199/1 103/200/1
f 106/201/1 105/202/1 104/203/1 107/204/1
f 55/205/5 106/206/5 107/207/5 69/208/5
f 45/209/2 103/210/2 100/211/2 52/212/2
f 69/213/2 107/214/2 104/215/2 76/216/2
f 76/217/3 104/218/3 105/219/3 62/220/3
f 34/221/4 101/222/4 102/223/4 31/224/4
f 1/225/5 94/226/5 99/227/5 10/228/5
f 8/229/3 97/230/3 108/231/3 86/232/3
f 7/233/4 93/234/4 94/235/4 1/236/4
f 52/237/3 100/238/3 101/239/3 34/240/3
f 2/241/2 96/242/2 97/243/2 8/244/2
f 62/245/4 105/246/4 106/247/4 55/248/4
f 79/249/5 95/250/5 96/251/5 2/252/5
f 109/253/1 111/254/1 61/132/1 75/172/1
f 63/255/1 77/256/1 110/171/1 112/133/1
f 111/254/1 63/255/1 112/133/1 61/132/1
f 77/256/1 109/253/1 75/172/1 110/171/1
usemtl Wall_NONE
f 114/257/10 116/258/10 125/259/10 128/260/10
f 115/261/4 116/258/4 121/262/4 122/263/4
f 118/264/4 117/265/4 127/266/4 128/260/4
f 123/267/2 124/268/2 114/257/2 113/269/2
f 115/261/5 122/263/5 123/267/5 113/269/5
f 121/262/3 116/258/3 114/257/3 124/268/3
f 120/270/1 119/271/1 122/263/1 121/262/1
f 119/271/1 117/265/1 123/267/1 122/263/1
f 118/264/1 120/270/1 121/262/1 124/268/1
f 117/265/1 118/264/1 124/268/1 123/267/1
f 115/261/11 126/272/11 125/259/11 116/258/11
f 117/265/3 119/271/3 126/272/3 127/266/3
f 120/270/5 118/264/5 128/260/5 125/259/5
f 119/271/2 120/270/2 125/259/2 126/272/2
f 113/269/12 114/257/12 128/260/12 127/266/12
f 115/261/13 113/269/13 127/266/13 126/272/13
