# Blender v2.79 (sub 0) OBJ File: 'room.blend'
# www.blender.org
o Wall_Plane.007
v 19.490578 0.036705 13.538771
v 19.490623 0.036705 -25.758020
v 19.490578 20.371655 13.538771
v 19.490622 20.371655 -25.758020
v 19.490578 10.378252 13.538771
v 19.490622 10.378252 -25.758020
v 19.490578 9.753088 13.538771
v 19.490622 9.753088 -25.758020
v 19.490585 20.371655 7.090385
v 19.490585 0.036705 7.090385
v 19.192644 10.378252 -25.758020
v 19.065056 10.287159 -25.758020
v 19.102427 10.351572 -25.758020
v 19.065012 10.287159 13.538771
v 19.192600 10.378252 13.538771
v 19.102381 10.351572 13.538771
v 19.065056 9.868629 -25.758020
v 19.226891 9.753088 -25.758020
v 19.112455 9.786929 -25.758020
v 19.226845 9.753088 13.538771
v 19.065012 9.868629 13.538771
v 19.112411 9.786929 13.538771
v 19.490585 10.378252 7.090385
v 19.490585 9.753088 7.090385
v 19.192608 10.378252 7.090385
v 19.102388 10.351572 7.090385
v 19.065018 10.287159 7.090385
v 19.065018 9.868629 7.090385
v 19.112419 9.786929 7.090385
v 19.226852 9.753088 7.090385
v 19.490585 0.036705 6.776637
v 19.192608 10.378252 6.776637
v 19.490585 20.371655 6.776637
v 19.490585 9.753088 6.776637
v 19.102388 10.351572 6.776637
v 19.065020 10.287159 6.776637
v 19.490585 10.378252 6.776637
v 19.112419 9.786929 6.776637
v 19.226852 9.753088 6.776637
v 19.065020 9.868629 6.776637
v 19.268223 9.753088 6.776637
v 19.268221 9.753088 7.090385
v 19.268223 0.036705 7.090385
v 19.268223 0.036705 6.776637
v 19.490597 0.036705 -2.525319
v 19.102400 10.351572 -2.525319
v 19.065029 10.287159 -2.525319
v 19.112431 9.786929 -2.525319
v 19.226864 9.753088 -2.525319
v 19.192619 10.378252 -2.525318
v 19.490595 20.371655 -2.525318
v 19.490597 9.753088 -2.525318
v 19.490597 10.378252 -2.525318
v 19.065029 9.868629 -2.525319
v 19.490597 0.036705 -2.958115
v 19.102400 10.351572 -2.958115
v 19.065029 10.287159 -2.958115
v 19.112431 9.786929 -2.958115
v 19.226864 9.753088 -2.958115
v 19.192619 10.378252 -2.958113
v 19.490597 20.371655 -2.958113
v 19.490597 9.753088 -2.958113
v 19.490597 10.378252 -2.958113
v 19.065029 9.868629 -2.958114
v 19.266869 9.753088 -2.958113
v 19.266867 9.753088 -2.525318
v 19.266869 0.036705 -2.525319
v 19.266869 0.036705 -2.958115
v 19.490610 0.036705 -14.249563
v 19.102413 10.351572 -14.249563
v 19.065042 10.287159 -14.249563
v 19.112444 9.786929 -14.249563
v 19.226877 9.753088 -14.249563
v 19.192633 10.378252 -14.249561
v 19.490608 20.371655 -14.249561
v 19.490610 9.753088 -14.249561
v 19.490610 10.378252 -14.249561
v 19.065042 9.868629 -14.249561
v 19.490610 0.036705 -14.753529
v 19.102413 10.351572 -14.753529
v 19.065044 10.287159 -14.753529
v 19.112444 9.786929 -14.753529
v 19.226877 9.753088 -14.753529
v 19.192633 10.378252 -14.753527
v 19.490610 20.371655 -14.753527
v 19.490610 9.753088 -14.753527
v 19.490610 10.378252 -14.753527
v 19.065044 9.868629 -14.753527
v 19.148348 9.753088 -14.753527
v 19.148348 9.753088 -14.249561
v 19.148348 0.036705 -14.249563
v 19.148350 0.036705 -14.753529
v 19.357857 9.753088 13.538771
v 19.357859 0.036705 13.538771
v 19.357889 0.036705 -14.753529
v 19.357903 0.036705 -25.758020
v 19.357903 9.753088 -25.758020
v 19.357864 9.753088 7.090385
v 19.357864 0.036705 7.090385
v 19.357876 9.753088 -2.525319
v 19.357864 9.753088 6.776637
v 19.357866 0.036705 6.776637
v 19.357876 0.036705 -2.525319
v 19.357889 9.753088 -14.249561
v 19.357876 9.753088 -2.958114
v 19.357876 0.036705 -2.958115
v 19.357889 0.036705 -14.249563
v 19.357889 9.753088 -14.753527
vt 0.462063 0.479833
vt 0.006207 0.479833
vt 0.006207 0.655186
vt 0.462063 0.655186
vt 0.825949 0.487428
vt 0.821065 0.487428
vt 0.821065 0.987428
vt 0.825949 0.987428
vt 0.944044 0.568535
vt 0.933864 0.568535
vt 0.933864 0.677246
vt 0.944044 0.677246
vt 0.199098 0.773001
vt 0.210064 0.773001
vt 0.213385 0.771628
vt 0.214760 0.768313
vt 0.214760 0.746776
vt 0.213016 0.742571
vt 0.208804 0.740830
vt 0.199098 0.740830
vt 0.944044 0.677246
vt 0.953054 0.677246
vt 0.953054 0.568535
vt 0.944044 0.568535
vt 0.183436 0.773001
vt 0.193142 0.773001
vt 0.197353 0.771259
vt 0.199098 0.767055
vt 0.199098 0.745517
vt 0.197722 0.742203
vt 0.194402 0.740830
vt 0.183436 0.740830
vt 0.930614 0.568535
vt 0.930614 0.677246
vt 0.903364 0.123467
vt 0.906473 0.123467
vt 0.906473 0.014756
vt 0.903364 0.014756
vt 0.926671 0.491725
vt 0.906473 0.491725
vt 0.906473 0.677246
vt 0.926671 0.677246
vt 0.926671 0.123467
vt 0.930614 0.123467
vt 0.930614 0.014756
vt 0.926671 0.014756
vt 0.957176 0.568535
vt 0.957176 0.677246
vt 0.944044 0.200277
vt 0.953054 0.200277
vt 0.953054 0.014756
vt 0.944044 0.014756
vt 0.957176 0.563245
vt 0.953054 0.563245
vt 0.926671 0.128756
vt 0.930614 0.128756
vt 0.903364 0.128756
vt 0.906473 0.128756
vt 0.933864 0.563245
vt 0.930614 0.563245
vt 0.944044 0.563245
vt 0.821064 0.487428
vt 0.816180 0.487428
vt 0.816180 0.987428
vt 0.821064 0.987428
vt 0.462063 0.029003
vt 0.006207 0.029003
vt 0.006207 0.131756
vt 0.462063 0.131756
vt 0.944044 0.406427
vt 0.933864 0.406427
vt 0.930614 0.406427
vt 0.903364 0.285574
vt 0.906473 0.285574
vt 0.926671 0.285574
vt 0.930614 0.285574
vt 0.957176 0.406427
vt 0.953054 0.406427
vt 0.944044 0.563245
vt 0.254215 0.748930
vt 0.254215 0.740830
vt 0.248555 0.740830
vt 0.248555 0.748930
vt 0.006207 0.136756
vt 0.462063 0.136756
vt 0.805636 0.487428
vt 0.805636 0.987428
vt 0.811295 0.987428
vt 0.811295 0.487428
vt 0.789645 0.487428
vt 0.781461 0.487428
vt 0.781461 0.987428
vt 0.789645 0.987428
vt 0.259874 0.748930
vt 0.259874 0.740830
vt 0.254215 0.740830
vt 0.254215 0.748930
vt 0.797829 0.487428
vt 0.789645 0.487428
vt 0.789645 0.987428
vt 0.797829 0.987428
vt 0.957176 0.399131
vt 0.953054 0.399131
vt 0.926671 0.292871
vt 0.930614 0.292871
vt 0.903364 0.292871
vt 0.906473 0.292871
vt 0.933864 0.399131
vt 0.930614 0.399131
vt 0.944044 0.399131
vt 0.944044 0.406427
vt 0.168906 0.908332
vt 0.173749 0.908332
vt 0.173749 0.740830
vt 0.168906 0.740830
vt 0.006207 0.284980
vt 0.462063 0.284980
vt 0.944044 0.208773
vt 0.933864 0.208773
vt 0.930614 0.208773
vt 0.903364 0.483229
vt 0.906473 0.483229
vt 0.926671 0.483229
vt 0.930614 0.483229
vt 0.957176 0.208773
vt 0.953054 0.208773
vt 0.944044 0.399131
vt 0.240748 0.748980
vt 0.240748 0.740830
vt 0.232942 0.740830
vt 0.232942 0.748980
vt 0.006207 0.291876
vt 0.462063 0.291876
vt 0.797829 0.487428
vt 0.797829 0.987428
vt 0.805636 0.987428
vt 0.805636 0.487428
vt 0.773227 0.487428
vt 0.764993 0.487428
vt 0.764993 0.987428
vt 0.773227 0.987428
vt 0.248555 0.748980
vt 0.248555 0.740830
vt 0.240748 0.740830
vt 0.240748 0.748980
vt 0.781461 0.487428
vt 0.773227 0.487428
vt 0.773227 0.987428
vt 0.781461 0.987428
vt 0.957176 0.200277
vt 0.930614 0.491725
vt 0.903364 0.491725
vt 0.933864 0.200277
vt 0.930614 0.200277
vt 0.944044 0.200277
vt 0.944044 0.208773
vt 0.178592 0.740830
vt 0.173749 0.740830
vt 0.173749 0.856947
vt 0.178592 0.856947
vt 0.006207 0.471802
vt 0.462063 0.471802
vt 0.944044 0.014756
vt 0.933864 0.014756
vt 0.930614 0.014756
vt 0.903364 0.677246
vt 0.930614 0.677246
vt 0.957176 0.014756
vt 0.968969 0.014756
vt 0.957176 0.014756
vt 0.957176 0.482863
vt 0.968969 0.482863
vt 0.755902 0.487428
vt 0.755902 0.987428
vt 0.764993 0.987428
vt 0.764993 0.487428
vt 0.223851 0.753298
vt 0.223851 0.740830
vt 0.214760 0.740830
vt 0.214760 0.753298
vt 0.980762 0.014756
vt 0.968969 0.014756
vt 0.968969 0.482863
vt 0.980762 0.482863
vt 0.232942 0.753298
vt 0.232942 0.740830
vt 0.223851 0.740830
vt 0.223851 0.753298
vt 0.715507 0.038958
vt 0.715507 0.437604
vt 0.873773 0.437604
vt 0.873773 0.038958
vt 0.651030 0.520269
vt 0.651030 0.956184
vt 0.735076 0.955440
vt 0.735076 0.519525
vt 0.633990 0.912263
vt 0.633990 0.564299
vt 0.517219 0.564299
vt 0.517219 0.912263
vt 0.663842 0.410840
vt 0.663842 0.065722
vt 0.523255 0.065722
vt 0.523255 0.410840
vt 0.855215 0.690755
vt 0.860059 0.690755
vt 0.860058 0.487428
vt 0.855215 0.487428
vt 0.811295 0.987428
vt 0.816180 0.987428
vt 0.816180 0.487428
vt 0.811295 0.487428
vt 0.840603 0.487428
vt 0.835718 0.487428
vt 0.835718 0.987428
vt 0.840603 0.987428
vt 0.855215 0.487428
vt 0.850372 0.487428
vt 0.850372 0.690755
vt 0.855215 0.690755
vt 0.830834 0.487428
vt 0.825949 0.487428
vt 0.825949 0.987428
vt 0.830834 0.987428
vt 0.178592 0.856947
vt 0.183436 0.856947
vt 0.183435 0.740830
vt 0.178592 0.740830
vt 0.855215 0.690755
vt 0.850372 0.690755
vt 0.850372 0.888916
vt 0.855215 0.888916
vt 0.845487 0.487428
vt 0.840603 0.487428
vt 0.840603 0.987428
vt 0.845487 0.987428
vt 0.168906 0.740830
vt 0.164062 0.740830
vt 0.164062 0.908332
vt 0.168906 0.908332
vt 0.850372 0.487428
vt 0.845487 0.487428
vt 0.845487 0.987428
vt 0.850372 0.987428
vt 0.835718 0.487428
vt 0.830834 0.487428
vt 0.830834 0.987428
vt 0.835718 0.987428
vt 0.855215 0.888916
vt 0.860059 0.888916
vt 0.860058 0.690755
vt 0.855215 0.690755
vn -1.0000 0.0000 -0.0000
vn 0.0000 0.0000 -1.0000
vn 0.0000 1.0000 0.0000
vn 0.0000 0.0000 1.0000
vn 0.0000 -1.0000 0.0000
vn -0.2836 0.9589 -0.0000
vn -0.8650 0.5018 -0.0000
vn -0.8650 -0.5018 -0.0000
vn -0.2836 -0.9589 -0.0000
s off
f 87/1/1 85/2/1 4/3/1 6/4/1
f 10/5/2 99/6/2 98/7/2 24/8/2
f 23/9/3 25/10/3 15/11/3 5/12/3
f 5/13/4 15/14/4 16/15/4 14/16/4 21/17/4 22/18/4 20/19/4 7/20/4
f 7/21/5 20/22/5 30/23/5 24/24/5
f 8/25/2 18/26/2 19/27/2 17/28/2 12/29/2 13/30/2 11/31/2 6/32/2
f 25/10/6 26/33/6 16/34/6 15/11/6
f 26/35/7 27/36/7 14/37/7 16/38/7
f 88/39/1 81/40/1 12/41/1 17/42/1
f 28/43/8 29/44/8 22/45/8 21/46/8
f 29/47/9 30/23/9 20/22/9 22/48/9
f 86/49/5 83/50/5 18/51/5 8/52/5
f 38/53/9 39/54/9 30/23/9 29/47/9
f 40/55/8 38/56/8 29/44/8 28/43/8
f 21/46/1 14/37/1 27/36/1 28/43/1
f 35/57/7 36/58/7 27/36/7 26/35/7
f 32/59/6 35/60/6 26/33/6 25/10/6
f 37/61/3 32/59/3 25/10/3 23/9/3
f 86/62/4 108/63/4 95/64/4 79/65/4
f 5/66/1 3/67/1 9/68/1 23/69/1
f 53/70/3 50/71/3 32/59/3 37/61/3
f 50/71/6 46/72/6 35/60/6 32/59/6
f 46/73/7 47/74/7 36/58/7 35/57/7
f 54/75/8 48/76/8 38/56/8 40/55/8
f 48/77/9 49/78/9 39/54/9 38/53/9
f 24/24/5 30/23/5 39/54/5 34/79/5
f 28/43/1 27/36/1 36/58/1 40/55/1
f 10/80/5 43/81/5 44/82/5 31/83/5
f 23/69/1 9/68/1 33/84/1 37/85/1
f 43/86/1 42/87/1 41/88/1 44/89/1
f 24/90/4 42/91/4 43/92/4 10/93/4
f 34/94/3 41/95/3 42/96/3 24/97/3
f 31/98/2 44/99/2 41/100/2 34/101/2
f 58/102/9 59/103/9 49/78/9 48/77/9
f 64/104/8 58/105/8 48/76/8 54/75/8
f 56/106/7 57/107/7 47/74/7 46/73/7
f 60/108/6 56/109/6 46/72/6 50/71/6
f 63/110/3 60/108/3 50/71/3 53/70/3
f 34/79/5 39/54/5 49/78/5 52/111/5
f 40/55/1 36/58/1 47/74/1 54/75/1
f 31/112/5 102/113/5 103/114/5 45/115/5
f 37/85/1 33/84/1 51/116/1 53/117/1
f 77/118/3 74/119/3 60/108/3 63/110/3
f 74/119/6 70/120/6 56/109/6 60/108/6
f 70/121/7 71/122/7 57/107/7 56/106/7
f 78/123/8 72/124/8 58/105/8 64/104/8
f 72/125/9 73/126/9 59/103/9 58/102/9
f 52/111/5 49/78/5 59/103/5 62/127/5
f 54/75/1 47/74/1 57/107/1 64/104/1
f 45/128/5 67/129/5 68/130/5 55/131/5
f 53/117/1 51/116/1 61/132/1 63/133/1
f 67/134/1 66/135/1 65/136/1 68/137/1
f 52/138/4 66/139/4 67/140/4 45/141/4
f 62/142/3 65/143/3 66/144/3 52/145/3
f 55/146/2 68/147/2 65/148/2 62/149/2
f 82/150/9 83/50/9 73/126/9 72/125/9
f 88/39/8 82/151/8 72/124/8 78/123/8
f 80/152/7 81/40/7 71/122/7 70/121/7
f 84/153/6 80/154/6 70/120/6 74/119/6
f 87/155/3 84/153/3 74/119/3 77/118/3
f 62/127/5 59/103/5 73/126/5 76/156/5
f 64/104/1 57/107/1 71/122/1 78/123/1
f 24/157/3 98/158/3 93/159/3 7/160/3
f 63/133/1 61/132/1 75/161/1 77/162/1
f 6/163/3 11/164/3 84/153/3 87/155/3
f 11/164/6 13/165/6 80/154/6 84/153/6
f 13/166/7 12/41/7 81/40/7 80/152/7
f 17/42/8 19/167/8 82/151/8 88/39/8
f 19/168/9 18/51/9 83/50/9 82/150/9
f 76/156/5 73/126/5 83/50/5 86/49/5
f 78/123/1 71/122/1 81/40/1 88/39/1
f 76/169/4 90/170/4 91/171/4 69/172/4
f 77/162/1 75/161/1 85/2/1 87/1/1
f 91/173/1 90/174/1 89/175/1 92/176/1
f 86/177/3 89/178/3 90/179/3 76/180/3
f 79/181/2 92/182/2 89/183/2 86/184/2
f 69/185/5 91/186/5 92/187/5 79/188/5
f 95/189/1 108/190/1 97/191/1 96/192/1
f 94/193/1 93/194/1 98/195/1 99/196/1
f 102/197/1 101/198/1 100/199/1 103/200/1
f 106/201/1 105/202/1 104/203/1 107/204/1
f 55/205/5 106/206/5 107/207/5 69/208/5
f 45/209/2 103/210/2 100/211/2 52/212/2
f 69/213/2 107/214/2 104/215/2 76/216/2
f 76/217/3 104/218/3 105/219/3 62/220/3
f 34/221/4 101/222/4 102/223/4 31/224/4
f 1/225/5 94/226/5 99/227/5 10/228/5
f 8/229/3 97/230/3 108/231/3 86/232/3
f 7/233/4 93/234/4 94/235/4 1/236/4
f 52/237/3 100/238/3 101/239/3 34/240/3
f 2/241/2 96/242/2 97/243/2 8/244/2
f 62/245/4 105/246/4 106/247/4 55/248/4
f 79/249/5 95/250/5 96/251/5 2/252/5
