# Blender v2.79 (sub 0) OBJ File: 'room.blend'
# www.blender.org
o Wall.001_Plane.002
v -19.130253 0.278004 14.557919
v 20.166538 0.278004 14.557944
v -19.130253 20.612953 14.557919
v 20.166538 20.612953 14.557943
v -19.130253 10.619551 14.557919
v 20.166538 10.619551 14.557944
v -19.130253 9.994387 14.557919
v 20.166538 9.994387 14.557944
v -12.681867 20.612953 14.557922
v -12.681867 0.278004 14.557923
v 20.166538 10.619551 14.259967
v 20.166538 10.528458 14.132378
v 20.166538 10.592871 14.169747
v -19.130253 10.528458 14.132352
v -19.130253 10.619551 14.259941
v -19.130253 10.592871 14.169722
v 20.166538 10.109928 14.132378
v 20.166538 9.994387 14.294212
v 20.166538 10.028228 14.179778
v -19.130253 9.994387 14.294187
v -19.130253 10.109928 14.132352
v -19.130253 10.028228 14.179752
v -12.681867 10.619551 14.557922
v -12.681867 9.994387 14.557922
v -12.681867 10.619551 14.259945
v -12.681867 10.592871 14.169726
v -12.681867 10.528458 14.132357
v -12.681867 10.109928 14.132357
v -12.681867 10.028228 14.179756
v -12.681867 9.994387 14.294190
v -12.368118 0.278004 14.557923
v -12.368118 10.619551 14.259946
v -12.368118 20.612953 14.557922
v -12.368118 9.994387 14.557923
v -12.368118 10.592871 14.169726
v -12.368118 10.528458 14.132357
v -12.368118 10.619551 14.557923
v -12.368118 10.028228 14.179757
v -12.368118 9.994387 14.294191
v -12.368118 10.109928 14.132357
v -12.368118 9.994387 14.335560
v -12.681867 9.994387 14.335560
v -12.681867 0.278004 14.335560
v -12.368118 0.278004 14.335560
v -1.620235 0.278004 14.557929
v -1.620235 10.592871 14.169732
v -1.620235 10.528458 14.132362
v -1.620235 10.028228 14.179763
v -1.620235 9.994387 14.294197
v -1.620235 10.619551 14.259952
v -1.620235 20.612953 14.557928
v -1.620235 9.994387 14.557929
v -1.620235 10.619551 14.557929
v -1.620235 10.109928 14.132362
v -1.187439 0.278004 14.557930
v -1.187439 10.592871 14.169733
v -1.187439 10.528458 14.132363
v -1.187439 10.028228 14.179763
v -1.187439 9.994387 14.294197
v -1.187441 10.619551 14.259952
v -1.187440 20.612953 14.557929
v -1.187440 9.994387 14.557929
v -1.187440 10.619551 14.557929
v -1.187440 10.109928 14.132363
v -1.187441 9.994387 14.334201
v -1.620235 9.994387 14.334201
v -1.620235 0.278004 14.334201
v -1.187439 0.278004 14.334201
v 7.153050 0.278004 14.557937
v 7.153050 10.592871 14.169740
v 7.153050 10.528458 14.132370
v 7.153050 10.028228 14.179770
v 7.153050 9.994387 14.294205
v 7.153049 10.619551 14.259959
v 7.153049 20.612953 14.557937
v 7.153049 9.994387 14.557937
v 7.153049 10.619551 14.557937
v 7.153049 10.109928 14.132370
v 7.657016 0.278004 14.557938
v 7.657015 10.592871 14.169741
v 7.657015 10.528458 14.132371
v 7.657015 10.028228 14.179770
v 7.657015 9.994387 14.294205
v 7.657014 10.619551 14.259959
v 7.657014 20.612953 14.557937
v 7.657014 9.994387 14.557937
v 7.657014 10.619551 14.557937
v 7.657014 10.109928 14.132371
v 7.657014 9.994387 14.215675
v 7.153049 9.994387 14.215675
v 7.153050 0.278004 14.215675
v 7.657015 0.278004 14.215676
v -19.130253 9.994387 14.425199
v -19.130253 0.278004 14.425199
v 7.657016 0.278004 14.425218
v 20.166538 0.278004 14.425224
v 20.166538 9.994387 14.425224
v -12.681867 9.994387 14.425202
v -12.681867 0.278004 14.425203
v -1.620235 9.994387 14.425209
v -12.368118 9.994387 14.425202
v -12.368118 0.278004 14.425203
v -1.620235 0.278004 14.425209
v 7.153049 9.994387 14.425217
v -1.187440 9.994387 14.425209
v -1.187439 0.278004 14.425210
v 7.153050 0.278004 14.425217
v 7.657014 9.994387 14.425217
v 20.166538 19.113945 14.557943
v 7.153049 19.113945 14.557937
v 7.657014 19.113945 14.557937
v -19.130253 19.113945 14.557919
v -12.681867 19.113945 14.557922
v -12.368118 19.113945 14.557922
v -1.620235 19.113945 14.557929
v -1.187440 19.113945 14.557929
v -1.334424 0.317257 14.425219
v 7.351799 0.317257 14.425222
v 7.351799 4.866792 14.425222
v -1.334425 4.866792 14.425219
v -1.148434 4.802998 14.506180
v -1.148434 19.210606 14.506180
v -0.646127 5.281321 14.480330
v -0.646127 18.732283 14.480330
v 7.224030 4.802998 14.506180
v 7.224030 19.210606 14.506180
v 6.769690 5.281321 14.480330
v 6.769690 18.732283 14.480330
v -1.148434 19.210606 14.063822
v -1.148434 4.802998 14.063822
v 7.224029 4.802998 14.063822
v 7.224029 19.210606 14.063822
v -1.023896 19.110054 14.096028
v -1.023896 4.903551 14.096028
v 7.147460 4.903551 14.096028
v 7.147460 19.110054 14.096028
v -0.905562 18.991718 14.009668
v -0.905562 5.021885 14.009668
v 7.029124 5.021885 14.009668
v 7.029124 18.991718 14.009668
v -0.831928 18.918083 14.215492
v -0.831928 5.095519 14.215492
v 6.955491 5.095519 14.215492
v 6.955491 18.918083 14.215492
v -0.758223 18.844379 14.303456
v -0.758223 5.169224 14.303456
v 6.881787 5.169224 14.303456
v 6.881787 18.844379 14.303456
vt 0.234135 0.479833
vt 0.006207 0.479833
vt 0.006207 0.655186
vt 0.234135 0.655186
vt 0.825949 0.487428
vt 0.821065 0.487428
vt 0.821065 0.987428
vt 0.825949 0.987428
vt 0.944044 0.568535
vt 0.933864 0.568535
vt 0.933864 0.677246
vt 0.944044 0.677246
vt 0.199098 0.773001
vt 0.210064 0.773001
vt 0.213385 0.771628
vt 0.214760 0.768313
vt 0.214760 0.746776
vt 0.213016 0.742571
vt 0.208804 0.740830
vt 0.199098 0.740830
vt 0.944044 0.677246
vt 0.953054 0.677246
vt 0.953054 0.568535
vt 0.944044 0.568535
vt 0.183436 0.773001
vt 0.193142 0.773001
vt 0.197353 0.771259
vt 0.199098 0.767055
vt 0.199098 0.745517
vt 0.197722 0.742203
vt 0.194402 0.740830
vt 0.183436 0.740830
vt 0.930614 0.568535
vt 0.930614 0.677246
vt 0.903364 0.123467
vt 0.906473 0.123467
vt 0.906473 0.014756
vt 0.903364 0.014756
vt 0.926671 0.491725
vt 0.906473 0.491725
vt 0.906473 0.677246
vt 0.926671 0.677246
vt 0.926671 0.123467
vt 0.930614 0.123467
vt 0.930614 0.014756
vt 0.926671 0.014756
vt 0.957176 0.568535
vt 0.957176 0.677246
vt 0.944044 0.200277
vt 0.953054 0.200277
vt 0.953054 0.014756
vt 0.944044 0.014756
vt 0.957176 0.563245
vt 0.953054 0.563245
vt 0.926671 0.128756
vt 0.930614 0.128756
vt 0.903364 0.128756
vt 0.906473 0.128756
vt 0.933864 0.563245
vt 0.930614 0.563245
vt 0.944044 0.563245
vt 0.821064 0.487428
vt 0.816180 0.487428
vt 0.816180 0.987428
vt 0.821064 0.987428
vt 0.234135 0.029003
vt 0.006207 0.029003
vt 0.006207 0.131756
vt 0.234135 0.131756
vt 0.944044 0.406427
vt 0.933864 0.406427
vt 0.930614 0.406427
vt 0.903364 0.285574
vt 0.906473 0.285574
vt 0.926671 0.285574
vt 0.930614 0.285574
vt 0.957176 0.406427
vt 0.953054 0.406427
vt 0.944044 0.563245
vt 0.254215 0.748930
vt 0.254215 0.740830
vt 0.248555 0.740830
vt 0.248555 0.748930
vt 0.006207 0.136756
vt 0.234135 0.136756
vt 0.805636 0.487428
vt 0.805636 0.987428
vt 0.811295 0.987428
vt 0.811295 0.487428
vt 0.789645 0.487428
vt 0.781461 0.487428
vt 0.781461 0.987428
vt 0.789645 0.987428
vt 0.259874 0.748930
vt 0.259874 0.740830
vt 0.254215 0.740830
vt 0.254215 0.748930
vt 0.797829 0.487428
vt 0.789645 0.487428
vt 0.789645 0.987428
vt 0.797829 0.987428
vt 0.957176 0.399131
vt 0.953054 0.399131
vt 0.926671 0.292871
vt 0.930614 0.292871
vt 0.903364 0.292871
vt 0.906473 0.292871
vt 0.933864 0.399131
vt 0.930614 0.399131
vt 0.944044 0.399131
vt 0.944044 0.406427
vt 0.168906 0.908332
vt 0.173749 0.908332
vt 0.173749 0.740830
vt 0.168906 0.740830
vt 0.006207 0.284980
vt 0.234135 0.284980
vt 0.006207 0.291876
vt 0.006207 0.471802
vt 0.234135 0.471802
vt 0.234135 0.291876
vt 0.462063 0.029003
vt 0.462063 0.131756
vt 0.944044 0.399131
vt 0.240748 0.748980
vt 0.240748 0.740830
vt 0.232942 0.740830
vt 0.232942 0.748980
vt 0.797829 0.487428
vt 0.797829 0.987428
vt 0.805636 0.987428
vt 0.805636 0.487428
vt 0.773227 0.487428
vt 0.764993 0.487428
vt 0.764993 0.987428
vt 0.773227 0.987428
vt 0.248555 0.748980
vt 0.248555 0.740830
vt 0.240748 0.740830
vt 0.240748 0.748980
vt 0.781461 0.487428
vt 0.773227 0.487428
vt 0.773227 0.987428
vt 0.781461 0.987428
vt 0.957176 0.200277
vt 0.953054 0.208773
vt 0.957176 0.208773
vt 0.930614 0.491725
vt 0.930614 0.483229
vt 0.926671 0.483229
vt 0.903364 0.491725
vt 0.906473 0.483229
vt 0.903364 0.483229
vt 0.933864 0.200277
vt 0.930614 0.200277
vt 0.930614 0.208773
vt 0.933864 0.208773
vt 0.944044 0.200277
vt 0.944044 0.208773
vt 0.462063 0.471802
vt 0.462063 0.479833
vt 0.462063 0.136756
vt 0.178592 0.740830
vt 0.173749 0.740830
vt 0.173749 0.856947
vt 0.178592 0.856947
vt 0.462063 0.284980
vt 0.944044 0.014756
vt 0.933864 0.014756
vt 0.930614 0.014756
vt 0.903364 0.677246
vt 0.930614 0.677246
vt 0.957176 0.014756
vt 0.944044 0.208773
vt 0.968969 0.014756
vt 0.957176 0.014756
vt 0.957176 0.482863
vt 0.968969 0.482863
vt 0.755902 0.487428
vt 0.755902 0.987428
vt 0.764993 0.987428
vt 0.764993 0.487428
vt 0.223851 0.753298
vt 0.223851 0.740830
vt 0.214760 0.740830
vt 0.214760 0.753298
vt 0.980762 0.014756
vt 0.968969 0.014756
vt 0.968969 0.482863
vt 0.980762 0.482863
vt 0.232942 0.753298
vt 0.232942 0.740830
vt 0.223851 0.740830
vt 0.223851 0.753298
vt 0.715507 0.038958
vt 0.715507 0.437604
vt 0.873773 0.437604
vt 0.873773 0.038958
vt 0.651030 0.520269
vt 0.651030 0.956184
vt 0.735076 0.955440
vt 0.735076 0.519525
vt 0.633990 0.912263
vt 0.633990 0.564299
vt 0.517219 0.564299
vt 0.517219 0.912263
vt 0.462063 0.291876
vt 0.811295 0.987428
vt 0.816180 0.987428
vt 0.816180 0.487428
vt 0.811295 0.487428
vt 0.840603 0.487428
vt 0.835718 0.487428
vt 0.835718 0.987428
vt 0.840603 0.987428
vt 0.462063 0.655186
vt 0.830834 0.487428
vt 0.825949 0.487428
vt 0.825949 0.987428
vt 0.830834 0.987428
vt 0.178592 0.856947
vt 0.183436 0.856947
vt 0.183435 0.740830
vt 0.178592 0.740830
vt 0.855215 0.690755
vt 0.850372 0.690755
vt 0.850372 0.888916
vt 0.855215 0.888916
vt 0.845487 0.487428
vt 0.840603 0.487428
vt 0.840603 0.987428
vt 0.845487 0.987428
vt 0.168906 0.740830
vt 0.164062 0.740830
vt 0.164062 0.908332
vt 0.168906 0.908332
vt 0.850372 0.487428
vt 0.845487 0.487428
vt 0.845487 0.987428
vt 0.850372 0.987428
vt 0.835718 0.487428
vt 0.830834 0.487428
vt 0.830834 0.987428
vt 0.835718 0.987428
vt 0.855215 0.888916
vt 0.860059 0.888916
vt 0.860058 0.690755
vt 0.855215 0.690755
vt 0.715507 0.038958
vt 0.715507 0.437604
vt 0.873773 0.437604
vt 0.873773 0.038958
vt 0.805543 0.888398
vt 0.805543 0.849837
vt 0.832543 0.849837
vt 0.840717 0.851483
vt 0.844104 0.855456
vt 0.844104 0.881271
vt 0.839809 0.886310
vt 0.836555 0.888398
vt 0.829440 0.888398
vt 0.817569 0.888398
vt 0.805108 0.935588
vt 0.805108 0.896157
vt 0.817405 0.896157
vt 0.825837 0.896157
vt 0.829544 0.896157
vt 0.840147 0.898291
vt 0.844539 0.903444
vt 0.844539 0.929842
vt 0.841076 0.933905
vt 0.832717 0.935588
vt 0.000000 0.000000
vt 0.000000 0.000000
vt 0.000000 0.000000
vt 0.000000 0.000000
vt 0.000000 0.000000
vt 0.000000 0.000000
vt 0.000000 0.000000
vt 0.000000 0.000000
vt 0.000000 0.000000
vt 0.000000 0.000000
vt 0.000000 0.000000
vt 0.000000 0.000000
vt 0.000000 0.000000
vt 0.000000 0.000000
vt 0.000000 0.000000
vt 0.000000 0.000000
vt 0.000000 0.000000
vt 0.000000 0.000000
vt 0.000000 0.000000
vt 0.000000 0.000000
vt 0.000000 0.000000
vt 0.000000 0.000000
vt 0.000000 0.000000
vt 0.000000 0.000000
vt 0.000000 0.000000
vt 0.000000 0.000000
vt 0.000000 0.000000
vt 0.000000 0.000000
vn 0.0000 0.0000 -1.0000
vn 1.0000 0.0000 0.0000
vn 0.0000 1.0000 0.0000
vn -1.0000 0.0000 0.0000
vn 0.0000 -1.0000 0.0000
vn 0.0000 0.9589 -0.2836
vn 0.0000 0.5018 -0.8650
vn 0.0000 -0.5018 -0.8650
vn 0.0000 -0.9589 -0.2836
vn 0.2504 0.0000 -0.9682
vn 0.0000 0.3050 -0.9523
vn 0.0000 -0.3050 -0.9523
vn -0.3877 0.0000 -0.9218
vn -0.5895 0.0000 -0.8078
vn 0.0000 -0.5895 -0.8078
vn 0.0000 0.5895 -0.8078
vn 0.5895 0.0000 -0.8078
vn 0.9416 0.0000 -0.3368
vn 0.0000 0.9416 -0.3368
vn 0.0000 -0.9416 -0.3369
vn -0.9416 0.0000 -0.3368
vn 0.7665 0.0000 -0.6422
vn 0.0000 0.7665 -0.6422
vn 0.0000 -0.7665 -0.6422
vn -0.7665 0.0000 -0.6422
vn 0.8447 0.0000 -0.5353
vn 0.0000 0.8447 -0.5353
vn 0.0000 -0.8447 -0.5353
vn -0.8447 0.0000 -0.5353
s off
f 111/1/1 85/2/1 4/3/1 109/4/1
f 10/5/2 99/6/2 98/7/2 24/8/2
f 23/9/3 25/10/3 15/11/3 5/12/3
f 5/13/4 15/14/4 16/15/4 14/16/4 21/17/4 22/18/4 20/19/4 7/20/4
f 7/21/5 20/22/5 30/23/5 24/24/5
f 8/25/2 18/26/2 19/27/2 17/28/2 12/29/2 13/30/2 11/31/2 6/32/2
f 25/10/6 26/33/6 16/34/6 15/11/6
f 26/35/7 27/36/7 14/37/7 16/38/7
f 88/39/1 81/40/1 12/41/1 17/42/1
f 28/43/8 29/44/8 22/45/8 21/46/8
f 29/47/9 30/23/9 20/22/9 22/48/9
f 86/49/5 83/50/5 18/51/5 8/52/5
f 38/53/9 39/54/9 30/23/9 29/47/9
f 40/55/8 38/56/8 29/44/8 28/43/8
f 21/46/1 14/37/1 27/36/1 28/43/1
f 35/57/7 36/58/7 27/36/7 26/35/7
f 32/59/6 35/60/6 26/33/6 25/10/6
f 37/61/3 32/59/3 25/10/3 23/9/3
f 86/62/4 108/63/4 95/64/4 79/65/4
f 112/66/1 3/67/1 9/68/1 113/69/1
f 53/70/3 50/71/3 32/59/3 37/61/3
f 50/71/6 46/72/6 35/60/6 32/59/6
f 46/73/7 47/74/7 36/58/7 35/57/7
f 54/75/8 48/76/8 38/56/8 40/55/8
f 48/77/9 49/78/9 39/54/9 38/53/9
f 24/24/5 30/23/5 39/54/5 34/79/5
f 28/43/1 27/36/1 36/58/1 40/55/1
f 10/80/5 43/81/5 44/82/5 31/83/5
f 113/69/1 9/68/1 33/84/1 114/85/1
f 43/86/1 42/87/1 41/88/1 44/89/1
f 24/90/4 42/91/4 43/92/4 10/93/4
f 34/94/3 41/95/3 42/96/3 24/97/3
f 31/98/2 44/99/2 41/100/2 34/101/2
f 58/102/9 59/103/9 49/78/9 48/77/9
f 64/104/8 58/105/8 48/76/8 54/75/8
f 56/106/7 57/107/7 47/74/7 46/73/7
f 60/108/6 56/109/6 46/72/6 50/71/6
f 63/110/3 60/108/3 50/71/3 53/70/3
f 34/79/5 39/54/5 49/78/5 52/111/5
f 40/55/1 36/58/1 47/74/1 54/75/1
f 31/112/5 102/113/5 103/114/5 45/115/5
f 114/85/1 33/84/1 51/116/1 115/117/1
f 61/118/1 75/119/1 110/120/1 116/121/1
f 5/122/1 112/66/1 113/69/1 23/123/1
f 52/111/5 49/78/5 59/103/5 62/124/5
f 54/75/1 47/74/1 57/107/1 64/104/1
f 45/125/5 67/126/5 68/127/5 55/128/5
f 115/117/1 51/116/1 61/118/1 116/121/1
f 67/129/1 66/130/1 65/131/1 68/132/1
f 52/133/4 66/134/4 67/135/4 45/136/4
f 62/137/3 65/138/3 66/139/3 52/140/3
f 55/141/2 68/142/2 65/143/2 62/144/2
f 82/145/9 83/50/9 73/146/9 72/147/9
f 88/39/8 82/148/8 72/149/8 78/150/8
f 80/151/7 81/40/7 71/152/7 70/153/7
f 84/154/6 80/155/6 70/156/6 74/157/6
f 87/158/3 84/154/3 74/157/3 77/159/3
f 77/160/1 110/120/1 111/1/1 87/161/1
f 23/123/1 113/69/1 114/85/1 37/162/1
f 24/163/3 98/164/3 93/165/3 7/166/3
f 37/162/1 114/85/1 115/117/1 53/167/1
f 6/168/3 11/169/3 84/154/3 87/158/3
f 11/169/6 13/170/6 80/155/6 84/154/6
f 13/171/7 12/41/7 81/40/7 80/151/7
f 17/42/8 19/172/8 82/148/8 88/39/8
f 19/173/9 18/51/9 83/50/9 82/145/9
f 76/174/5 73/146/5 83/50/5 86/49/5
f 78/150/1 71/152/1 81/40/1 88/39/1
f 76/175/4 90/176/4 91/177/4 69/178/4
f 110/120/1 75/119/1 85/2/1 111/1/1
f 91/179/1 90/180/1 89/181/1 92/182/1
f 86/183/3 89/184/3 90/185/3 76/186/3
f 79/187/2 92/188/2 89/189/2 86/190/2
f 69/191/5 91/192/5 92/193/5 79/194/5
f 95/195/1 108/196/1 97/197/1 96/198/1
f 94/199/1 93/200/1 98/201/1 99/202/1
f 102/203/1 101/204/1 100/205/1 103/206/1
f 53/167/1 115/117/1 116/121/1 63/207/1
f 45/208/2 103/209/2 100/210/2 52/211/2
f 69/212/2 107/213/2 104/214/2 76/215/2
f 87/161/1 111/1/1 109/4/1 6/216/1
f 34/217/4 101/218/4 102/219/4 31/220/4
f 1/221/5 94/222/5 99/223/5 10/224/5
f 8/225/3 97/226/3 108/227/3 86/228/3
f 7/229/4 93/230/4 94/231/4 1/232/4
f 52/233/3 100/234/3 101/235/3 34/236/3
f 2/237/2 96/238/2 97/239/2 8/240/2
f 62/241/4 105/242/4 106/243/4 55/244/4
f 79/245/5 95/246/5 96/247/5 2/248/5
f 117/249/1 120/250/1 119/251/1 118/252/1
f 76/253/4 77/254/4 74/255/4 70/256/4 71/257/4 78/258/4 72/259/4 90/260/4 73/261/4 104/262/4
f 63/263/2 62/264/2 105/265/2 65/266/2 59/267/2 58/268/2 64/269/2 57/270/2 56/271/2 60/272/2
f 121/273/4 122/274/4 129/275/4 130/276/4
f 131/277/2 132/278/2 126/279/2 125/280/2
f 130/276/5 131/277/5 125/280/5 121/273/5
f 132/278/3 129/275/3 122/274/3 126/279/3
f 133/281/10 134/282/10 130/276/10 129/275/10
f 134/282/11 135/283/11 131/277/11 130/276/11
f 136/284/12 133/281/12 129/275/12 132/278/12
f 135/283/13 136/284/13 132/278/13 131/277/13
f 137/285/14 138/286/14 134/282/14 133/281/14
f 138/286/15 139/287/15 135/283/15 134/282/15
f 140/288/16 137/285/16 133/281/16 136/284/16
f 139/287/17 140/288/17 136/284/17 135/283/17
f 141/289/18 142/290/18 138/286/18 137/285/18
f 142/290/19 143/291/19 139/287/19 138/286/19
f 144/292/20 141/289/20 137/285/20 140/288/20
f 143/291/21 144/292/21 140/288/21 139/287/21
f 145/293/22 146/294/22 142/290/22 141/289/22
f 146/294/23 147/295/23 143/291/23 142/290/23
f 148/296/24 145/293/24 141/289/24 144/292/24
f 147/295/25 148/296/25 144/292/25 143/291/25
f 124/297/26 123/298/26 146/294/26 145/293/26
f 123/298/27 127/299/27 147/295/27 146/294/27
f 128/300/28 124/297/28 145/293/28 148/296/28
f 127/299/29 128/300/29 148/296/29 147/295/29
